<svg xmlns="http://www.w3.org/2000/svg" width="880" height="3527" viewBox="0 0 880 3527">
<defs>
  <linearGradient id="goGrad2" x1="0" y1="0" x2="1" y2="0">
    <stop offset="0%" stop-color="#00ADD8" stop-opacity="0.9"/>
    <stop offset="100%" stop-color="#0891B2" stop-opacity="0.8"/>
  </linearGradient>
  <linearGradient id="tsGrad2" x1="0" y1="0" x2="1" y2="0">
    <stop offset="0%" stop-color="#3178C6" stop-opacity="0.9"/>
    <stop offset="100%" stop-color="#1D4ED8" stop-opacity="0.8"/>
  </linearGradient>
</defs>
<rect width="880" height="3527" fill="#FAFAFA" rx="12"/>
<rect x=".5" y=".5" width="879" height="3526" fill="none" stroke="#E5E7EB" rx="12"/>
<text x="440" y="34" text-anchor="middle" font-family="system-ui,sans-serif" font-size="18" font-weight="700" fill="#111827">Latency Comparison: Go vs TypeScript</text>
<text x="440" y="54" text-anchor="middle" font-family="system-ui,sans-serif" font-size="12" fill="#6B7280">Nanoseconds per operation (lower is better) &#183; log scale</text>
<g transform="translate(200,80)">
  <line x1="0.0" y1="0" x2="0.0" y2="3392" stroke="#E5E7EB"/>
  <text x="0.0" y="3408" text-anchor="middle" font-family="system-ui,sans-serif" font-size="10" fill="#9CA3AF">1ns</text>
  <line x1="64.4" y1="0" x2="64.4" y2="3392" stroke="#E5E7EB"/>
  <text x="64.4" y="3408" text-anchor="middle" font-family="system-ui,sans-serif" font-size="10" fill="#9CA3AF">10ns</text>
  <line x1="128.9" y1="0" x2="128.9" y2="3392" stroke="#E5E7EB"/>
  <text x="128.9" y="3408" text-anchor="middle" font-family="system-ui,sans-serif" font-size="10" fill="#9CA3AF">100ns</text>
  <line x1="193.3" y1="0" x2="193.3" y2="3392" stroke="#E5E7EB"/>
  <text x="193.3" y="3408" text-anchor="middle" font-family="system-ui,sans-serif" font-size="10" fill="#9CA3AF">1&#181;s</text>
  <line x1="257.8" y1="0" x2="257.8" y2="3392" stroke="#E5E7EB"/>
  <text x="257.8" y="3408" text-anchor="middle" font-family="system-ui,sans-serif" font-size="10" fill="#9CA3AF">10&#181;s</text>
  <line x1="322.2" y1="0" x2="322.2" y2="3392" stroke="#E5E7EB"/>
  <text x="322.2" y="3408" text-anchor="middle" font-family="system-ui,sans-serif" font-size="10" fill="#9CA3AF">100&#181;s</text>
  <line x1="386.7" y1="0" x2="386.7" y2="3392" stroke="#E5E7EB"/>
  <text x="386.7" y="3408" text-anchor="middle" font-family="system-ui,sans-serif" font-size="10" fill="#9CA3AF">1ms</text>
  <line x1="451.1" y1="0" x2="451.1" y2="3392" stroke="#E5E7EB"/>
  <text x="451.1" y="3408" text-anchor="middle" font-family="system-ui,sans-serif" font-size="10" fill="#9CA3AF">10ms</text>
  <line x1="515.6" y1="0" x2="515.6" y2="3392" stroke="#E5E7EB"/>
  <text x="515.6" y="3408" text-anchor="middle" font-family="system-ui,sans-serif" font-size="10" fill="#9CA3AF">100ms</text>
  <line x1="580.0" y1="0" x2="580.0" y2="3392" stroke="#E5E7EB"/>
  <text x="580.0" y="3408" text-anchor="middle" font-family="system-ui,sans-serif" font-size="10" fill="#9CA3AF">1s</text>
  <text x="-10" y="16" text-anchor="end" font-family="system-ui,sans-serif" font-size="13" font-weight="700" fill="#1F2937">Abi</text>
  <text x="-10" y="58" text-anchor="end" font-family="system-ui,sans-serif" font-size="11.5" fill="#4B5563">Decode Result</text>
  <rect x="0" y="36" width="128.6" height="16" fill="url(#goGrad2)" rx="3"/>
  <text x="134.6" y="48" font-family="system-ui,sans-serif" font-size="10" fill="#0E7490">98.9 ns</text>
  <rect x="0" y="56" width="195.0" height="16" fill="url(#tsGrad2)" rx="3"/>
  <text x="201.0" y="68" font-family="system-ui,sans-serif" font-size="10" fill="#1E40AF">1.06 µs</text>
  <text x="-10" y="110" text-anchor="end" font-family="system-ui,sans-serif" font-size="11.5" fill="#4B5563">Encode Simple</text>
  <rect x="0" y="88" width="154.4" height="16" fill="url(#goGrad2)" rx="3"/>
  <text x="160.4" y="100" font-family="system-ui,sans-serif" font-size="10" fill="#0E7490">248.6 ns</text>
  <rect x="0" y="108" width="254.5" height="16" fill="url(#tsGrad2)" rx="3"/>
  <text x="260.5" y="120" font-family="system-ui,sans-serif" font-size="10" fill="#1E40AF">8.90 µs</text>
  <text x="-10" y="162" text-anchor="end" font-family="system-ui,sans-serif" font-size="11.5" fill="#4B5563">EncodePacked</text>
  <rect x="0" y="140" width="162.2" height="16" fill="url(#goGrad2)" rx="3"/>
  <text x="168.2" y="152" font-family="system-ui,sans-serif" font-size="10" fill="#0E7490">328.5 ns</text>
  <rect x="0" y="160" width="183.2" height="16" fill="url(#tsGrad2)" rx="3"/>
  <text x="189.2" y="172" font-family="system-ui,sans-serif" font-size="10" fill="#1E40AF">697.0 ns</text>
  <text x="-10" y="214" text-anchor="end" font-family="system-ui,sans-serif" font-size="11.5" fill="#4B5563">Encode Complex</text>
  <rect x="0" y="192" width="163.2" height="16" fill="url(#goGrad2)" rx="3"/>
  <text x="169.2" y="204" font-family="system-ui,sans-serif" font-size="10" fill="#0E7490">340.6 ns</text>
  <rect x="0" y="212" width="255.5" height="16" fill="url(#tsGrad2)" rx="3"/>
  <text x="261.5" y="224" font-family="system-ui,sans-serif" font-size="10" fill="#1E40AF">9.21 µs</text>
  <text x="-10" y="266" text-anchor="end" font-family="system-ui,sans-serif" font-size="11.5" fill="#4B5563">EncodePacked Multi</text>
  <rect x="0" y="244" width="170.5" height="16" fill="url(#goGrad2)" rx="3"/>
  <text x="176.5" y="256" font-family="system-ui,sans-serif" font-size="10" fill="#0E7490">441.8 ns</text>
  <rect x="0" y="264" width="201.0" height="16" fill="url(#tsGrad2)" rx="3"/>
  <text x="207.0" y="276" font-family="system-ui,sans-serif" font-size="10" fill="#1E40AF">1.32 µs</text>
  <text x="-10" y="318" text-anchor="end" font-family="system-ui,sans-serif" font-size="11.5" fill="#4B5563">Encode 3-Arg</text>
  <rect x="0" y="296" width="171.4" height="16" fill="url(#goGrad2)" rx="3"/>
  <text x="177.4" y="308" font-family="system-ui,sans-serif" font-size="10" fill="#0E7490">457.0 ns</text>
  <rect x="0" y="316" width="257.5" height="16" fill="url(#tsGrad2)" rx="3"/>
  <text x="263.5" y="328" font-family="system-ui,sans-serif" font-size="10" fill="#1E40AF">9.89 µs</text>
  <text x="-10" y="364" text-anchor="end" font-family="system-ui,sans-serif" font-size="13" font-weight="700" fill="#1F2937">Address</text>
  <text x="-10" y="406" text-anchor="end" font-family="system-ui,sans-serif" font-size="11.5" fill="#4B5563">IsAddress Lower</text>
  <rect x="0" y="384" width="161.4" height="16" fill="url(#goGrad2)" rx="3"/>
  <text x="167.4" y="396" font-family="system-ui,sans-serif" font-size="10" fill="#0E7490">319.6 ns</text>
  <rect x="0" y="404" width="159.8" height="16" fill="url(#tsGrad2)" rx="3"/>
  <text x="165.8" y="416" font-family="system-ui,sans-serif" font-size="10" fill="#1E40AF">302.0 ns</text>
  <text x="-10" y="458" text-anchor="end" font-family="system-ui,sans-serif" font-size="11.5" fill="#4B5563">Checksum</text>
  <rect x="0" y="436" width="188.5" height="16" fill="url(#goGrad2)" rx="3"/>
  <text x="194.5" y="448" font-family="system-ui,sans-serif" font-size="10" fill="#0E7490">840.0 ns</text>
  <rect x="0" y="456" width="187.7" height="16" fill="url(#tsGrad2)" rx="3"/>
  <text x="193.7" y="468" font-family="system-ui,sans-serif" font-size="10" fill="#1E40AF">817.6 ns</text>
  <text x="-10" y="510" text-anchor="end" font-family="system-ui,sans-serif" font-size="11.5" fill="#4B5563">IsAddress</text>
  <rect x="0" y="488" width="191.2" height="16" fill="url(#goGrad2)" rx="3"/>
  <text x="197.2" y="500" font-family="system-ui,sans-serif" font-size="10" fill="#0E7490">927.5 ns</text>
  <rect x="0" y="508" width="159.5" height="16" fill="url(#tsGrad2)" rx="3"/>
  <text x="165.5" y="520" font-family="system-ui,sans-serif" font-size="10" fill="#1E40AF">298.4 ns</text>
  <text x="-10" y="562" text-anchor="end" font-family="system-ui,sans-serif" font-size="11.5" fill="#4B5563">CREATE</text>
  <rect x="0" y="540" width="218.2" height="16" fill="url(#goGrad2)" rx="3"/>
  <text x="224.2" y="552" font-family="system-ui,sans-serif" font-size="10" fill="#0E7490">2.43 µs</text>
  <rect x="0" y="560" width="256.8" height="16" fill="url(#tsGrad2)" rx="3"/>
  <text x="262.8" y="572" font-family="system-ui,sans-serif" font-size="10" fill="#1E40AF">9.67 µs</text>
  <text x="-10" y="614" text-anchor="end" font-family="system-ui,sans-serif" font-size="11.5" fill="#4B5563">CREATE2</text>
  <rect x="0" y="592" width="221.1" height="16" fill="url(#goGrad2)" rx="3"/>
  <text x="227.1" y="604" font-family="system-ui,sans-serif" font-size="10" fill="#0E7490">2.69 µs</text>
  <rect x="0" y="612" width="273.4" height="16" fill="url(#tsGrad2)" rx="3"/>
  <text x="279.4" y="624" font-family="system-ui,sans-serif" font-size="10" fill="#1E40AF">17.50 µs</text>
  <text x="-10" y="660" text-anchor="end" font-family="system-ui,sans-serif" font-size="13" font-weight="700" fill="#1F2937">Call</text>
  <text x="-10" y="702" text-anchor="end" font-family="system-ui,sans-serif" font-size="11.5" fill="#4B5563">BalanceOf Multi</text>
  <rect x="0" y="680" width="340.5" height="16" fill="url(#goGrad2)" rx="3"/>
  <text x="346.5" y="692" font-family="system-ui,sans-serif" font-size="10" fill="#0E7490">192.36 µs</text>
  <rect x="0" y="700" width="466.8" height="16" fill="url(#tsGrad2)" rx="3"/>
  <text x="472.8" y="712" font-family="system-ui,sans-serif" font-size="10" fill="#1E40AF">17.51 ms</text>
  <text x="-10" y="754" text-anchor="end" font-family="system-ui,sans-serif" font-size="11.5" fill="#4B5563">With Data</text>
  <rect x="0" y="732" width="340.7" height="16" fill="url(#goGrad2)" rx="3"/>
  <text x="346.7" y="744" font-family="system-ui,sans-serif" font-size="10" fill="#0E7490">193.79 µs</text>
  <rect x="0" y="752" width="468.4" height="16" fill="url(#tsGrad2)" rx="3"/>
  <text x="474.4" y="764" font-family="system-ui,sans-serif" font-size="10" fill="#1E40AF">18.55 ms</text>
  <text x="-10" y="806" text-anchor="end" font-family="system-ui,sans-serif" font-size="11.5" fill="#4B5563">Basic</text>
  <rect x="0" y="784" width="341.2" height="16" fill="url(#goGrad2)" rx="3"/>
  <text x="347.2" y="796" font-family="system-ui,sans-serif" font-size="10" fill="#0E7490">196.68 µs</text>
  <rect x="0" y="804" width="468.7" height="16" fill="url(#tsGrad2)" rx="3"/>
  <text x="474.7" y="816" font-family="system-ui,sans-serif" font-size="10" fill="#1E40AF">18.72 ms</text>
  <text x="-10" y="858" text-anchor="end" font-family="system-ui,sans-serif" font-size="11.5" fill="#4B5563">Decimals</text>
  <rect x="0" y="836" width="341.8" height="16" fill="url(#goGrad2)" rx="3"/>
  <text x="347.8" y="848" font-family="system-ui,sans-serif" font-size="10" fill="#0E7490">201.24 µs</text>
  <rect x="0" y="856" width="467.1" height="16" fill="url(#tsGrad2)" rx="3"/>
  <text x="473.1" y="868" font-family="system-ui,sans-serif" font-size="10" fill="#1E40AF">17.73 ms</text>
  <text x="-10" y="910" text-anchor="end" font-family="system-ui,sans-serif" font-size="11.5" fill="#4B5563">With Account</text>
  <rect x="0" y="888" width="342.2" height="16" fill="url(#goGrad2)" rx="3"/>
  <text x="348.2" y="900" font-family="system-ui,sans-serif" font-size="10" fill="#0E7490">204.23 µs</text>
  <rect x="0" y="908" width="355.2" height="16" fill="url(#tsGrad2)" rx="3"/>
  <text x="361.2" y="920" font-family="system-ui,sans-serif" font-size="10" fill="#1E40AF">324.59 µs</text>
  <text x="-10" y="962" text-anchor="end" font-family="system-ui,sans-serif" font-size="11.5" fill="#4B5563">Symbol</text>
  <rect x="0" y="940" width="346.6" height="16" fill="url(#goGrad2)" rx="3"/>
  <text x="352.6" y="952" font-family="system-ui,sans-serif" font-size="10" fill="#0E7490">238.62 µs</text>
  <rect x="0" y="960" width="467.1" height="16" fill="url(#tsGrad2)" rx="3"/>
  <text x="473.1" y="972" font-family="system-ui,sans-serif" font-size="10" fill="#1E40AF">17.74 ms</text>
  <text x="-10" y="1008" text-anchor="end" font-family="system-ui,sans-serif" font-size="13" font-weight="700" fill="#1F2937">Ens</text>
  <text x="-10" y="1050" text-anchor="end" font-family="system-ui,sans-serif" font-size="11.5" fill="#4B5563">Normalize</text>
  <rect x="0" y="1028" width="165.1" height="16" fill="url(#goGrad2)" rx="3"/>
  <text x="171.1" y="1040" font-family="system-ui,sans-serif" font-size="10" fill="#0E7490">364.9 ns</text>
  <rect x="0" y="1048" width="192.7" height="16" fill="url(#tsGrad2)" rx="3"/>
  <text x="198.7" y="1060" font-family="system-ui,sans-serif" font-size="10" fill="#1E40AF">978.6 ns</text>
  <text x="-10" y="1102" text-anchor="end" font-family="system-ui,sans-serif" font-size="11.5" fill="#4B5563">Labelhash</text>
  <rect x="0" y="1080" width="170.5" height="16" fill="url(#goGrad2)" rx="3"/>
  <text x="176.5" y="1092" font-family="system-ui,sans-serif" font-size="10" fill="#0E7490">441.7 ns</text>
  <rect x="0" y="1100" width="248.6" height="16" fill="url(#tsGrad2)" rx="3"/>
  <text x="254.6" y="1112" font-family="system-ui,sans-serif" font-size="10" fill="#1E40AF">7.20 µs</text>
  <text x="-10" y="1154" text-anchor="end" font-family="system-ui,sans-serif" font-size="11.5" fill="#4B5563">Normalize Long</text>
  <rect x="0" y="1132" width="189.4" height="16" fill="url(#goGrad2)" rx="3"/>
  <text x="195.4" y="1144" font-family="system-ui,sans-serif" font-size="10" fill="#0E7490">870.4 ns</text>
  <rect x="0" y="1152" width="220.3" height="16" fill="url(#tsGrad2)" rx="3"/>
  <text x="226.3" y="1164" font-family="system-ui,sans-serif" font-size="10" fill="#1E40AF">2.62 µs</text>
  <text x="-10" y="1206" text-anchor="end" font-family="system-ui,sans-serif" font-size="11.5" fill="#4B5563">Namehash</text>
  <rect x="0" y="1184" width="206.5" height="16" fill="url(#goGrad2)" rx="3"/>
  <text x="212.5" y="1196" font-family="system-ui,sans-serif" font-size="10" fill="#0E7490">1.60 µs</text>
  <rect x="0" y="1204" width="287.6" height="16" fill="url(#tsGrad2)" rx="3"/>
  <text x="293.6" y="1216" font-family="system-ui,sans-serif" font-size="10" fill="#1E40AF">28.98 µs</text>
  <text x="-10" y="1258" text-anchor="end" font-family="system-ui,sans-serif" font-size="11.5" fill="#4B5563">Namehash Deep</text>
  <rect x="0" y="1236" width="225.7" height="16" fill="url(#goGrad2)" rx="3"/>
  <text x="231.7" y="1248" font-family="system-ui,sans-serif" font-size="10" fill="#0E7490">3.18 µs</text>
  <rect x="0" y="1256" width="305.9" height="16" fill="url(#tsGrad2)" rx="3"/>
  <text x="311.9" y="1268" font-family="system-ui,sans-serif" font-size="10" fill="#1E40AF">55.77 µs</text>
  <text x="-10" y="1304" text-anchor="end" font-family="system-ui,sans-serif" font-size="13" font-weight="700" fill="#1F2937">Event</text>
  <text x="-10" y="1346" text-anchor="end" font-family="system-ui,sans-serif" font-size="11.5" fill="#4B5563">Decode Transfer</text>
  <rect x="0" y="1324" width="166.9" height="16" fill="url(#goGrad2)" rx="3"/>
  <text x="172.9" y="1336" font-family="system-ui,sans-serif" font-size="10" fill="#0E7490">388.8 ns</text>
  <rect x="0" y="1344" width="263.3" height="16" fill="url(#tsGrad2)" rx="3"/>
  <text x="269.3" y="1356" font-family="system-ui,sans-serif" font-size="10" fill="#1E40AF">12.16 µs</text>
  <text x="-10" y="1398" text-anchor="end" font-family="system-ui,sans-serif" font-size="11.5" fill="#4B5563">Decode Batch 10</text>
  <rect x="0" y="1376" width="230.8" height="16" fill="url(#goGrad2)" rx="3"/>
  <text x="236.8" y="1388" font-family="system-ui,sans-serif" font-size="10" fill="#0E7490">3.81 µs</text>
  <rect x="0" y="1396" width="326.7" height="16" fill="url(#tsGrad2)" rx="3"/>
  <text x="332.7" y="1408" font-family="system-ui,sans-serif" font-size="10" fill="#1E40AF">117.47 µs</text>
  <text x="-10" y="1450" text-anchor="end" font-family="system-ui,sans-serif" font-size="11.5" fill="#4B5563">Decode Batch 100</text>
  <rect x="0" y="1428" width="295.2" height="16" fill="url(#goGrad2)" rx="3"/>
  <text x="301.2" y="1440" font-family="system-ui,sans-serif" font-size="10" fill="#0E7490">38.02 µs</text>
  <rect x="0" y="1448" width="391.1" height="16" fill="url(#tsGrad2)" rx="3"/>
  <text x="397.1" y="1460" font-family="system-ui,sans-serif" font-size="10" fill="#1E40AF">1.17 ms</text>
  <text x="-10" y="1496" text-anchor="end" font-family="system-ui,sans-serif" font-size="13" font-weight="700" fill="#1F2937">Hash</text>
  <text x="-10" y="1538" text-anchor="end" font-family="system-ui,sans-serif" font-size="11.5" fill="#4B5563">SHA-256 Short</text>
  <rect x="0" y="1516" width="142.7" height="16" fill="url(#goGrad2)" rx="3"/>
  <text x="148.7" y="1528" font-family="system-ui,sans-serif" font-size="10" fill="#0E7490">163.7 ns</text>
  <rect x="0" y="1536" width="203.9" height="16" fill="url(#tsGrad2)" rx="3"/>
  <text x="209.9" y="1548" font-family="system-ui,sans-serif" font-size="10" fill="#1E40AF">1.46 µs</text>
  <text x="-10" y="1590" text-anchor="end" font-family="system-ui,sans-serif" font-size="11.5" fill="#4B5563">Keccak256 Short</text>
  <rect x="0" y="1568" width="170.1" height="16" fill="url(#goGrad2)" rx="3"/>
  <text x="176.1" y="1580" font-family="system-ui,sans-serif" font-size="10" fill="#0E7490">435.7 ns</text>
  <rect x="0" y="1588" width="248.3" height="16" fill="url(#tsGrad2)" rx="3"/>
  <text x="254.3" y="1600" font-family="system-ui,sans-serif" font-size="10" fill="#1E40AF">7.13 µs</text>
  <text x="-10" y="1642" text-anchor="end" font-family="system-ui,sans-serif" font-size="11.5" fill="#4B5563">Keccak256 Hex</text>
  <rect x="0" y="1620" width="171.2" height="16" fill="url(#goGrad2)" rx="3"/>
  <text x="177.2" y="1632" font-family="system-ui,sans-serif" font-size="10" fill="#0E7490">453.4 ns</text>
  <rect x="0" y="1640" width="248.2" height="16" fill="url(#tsGrad2)" rx="3"/>
  <text x="254.2" y="1652" font-family="system-ui,sans-serif" font-size="10" fill="#1E40AF">7.11 µs</text>
  <text x="-10" y="1694" text-anchor="end" font-family="system-ui,sans-serif" font-size="11.5" fill="#4B5563">SHA-256 Long</text>
  <rect x="0" y="1672" width="180.8" height="16" fill="url(#goGrad2)" rx="3"/>
  <text x="186.8" y="1684" font-family="system-ui,sans-serif" font-size="10" fill="#0E7490">639.2 ns</text>
  <rect x="0" y="1692" width="267.1" height="16" fill="url(#tsGrad2)" rx="3"/>
  <text x="273.1" y="1704" font-family="system-ui,sans-serif" font-size="10" fill="#1E40AF">13.97 µs</text>
  <text x="-10" y="1746" text-anchor="end" font-family="system-ui,sans-serif" font-size="11.5" fill="#4B5563">Fn Selector</text>
  <rect x="0" y="1724" width="214.1" height="16" fill="url(#goGrad2)" rx="3"/>
  <text x="220.1" y="1736" font-family="system-ui,sans-serif" font-size="10" fill="#0E7490">2.10 µs</text>
  <rect x="0" y="1744" width="252.6" height="16" fill="url(#tsGrad2)" rx="3"/>
  <text x="258.6" y="1756" font-family="system-ui,sans-serif" font-size="10" fill="#1E40AF">8.30 µs</text>
  <text x="-10" y="1798" text-anchor="end" font-family="system-ui,sans-serif" font-size="11.5" fill="#4B5563">Keccak256 Long</text>
  <rect x="0" y="1776" width="221.3" height="16" fill="url(#goGrad2)" rx="3"/>
  <text x="227.3" y="1788" font-family="system-ui,sans-serif" font-size="10" fill="#0E7490">2.72 µs</text>
  <rect x="0" y="1796" width="308.2" height="16" fill="url(#tsGrad2)" rx="3"/>
  <text x="314.2" y="1808" font-family="system-ui,sans-serif" font-size="10" fill="#1E40AF">60.57 µs</text>
  <text x="-10" y="1850" text-anchor="end" font-family="system-ui,sans-serif" font-size="11.5" fill="#4B5563">Event Selector</text>
  <rect x="0" y="1828" width="223.0" height="16" fill="url(#goGrad2)" rx="3"/>
  <text x="229.0" y="1840" font-family="system-ui,sans-serif" font-size="10" fill="#0E7490">2.88 µs</text>
  <rect x="0" y="1848" width="253.7" height="16" fill="url(#tsGrad2)" rx="3"/>
  <text x="259.7" y="1860" font-family="system-ui,sans-serif" font-size="10" fill="#1E40AF">8.64 µs</text>
  <text x="-10" y="1896" text-anchor="end" font-family="system-ui,sans-serif" font-size="13" font-weight="700" fill="#1F2937">Multicall</text>
  <text x="-10" y="1938" text-anchor="end" font-family="system-ui,sans-serif" font-size="11.5" fill="#4B5563">Basic</text>
  <rect x="0" y="1916" width="344.9" height="16" fill="url(#goGrad2)" rx="3"/>
  <text x="350.9" y="1928" font-family="system-ui,sans-serif" font-size="10" fill="#0E7490">225.24 µs</text>
  <rect x="0" y="1936" width="364.8" height="16" fill="url(#tsGrad2)" rx="3"/>
  <text x="370.8" y="1948" font-family="system-ui,sans-serif" font-size="10" fill="#1E40AF">458.14 µs</text>
  <text x="-10" y="1990" text-anchor="end" font-family="system-ui,sans-serif" font-size="11.5" fill="#4B5563">With Args</text>
  <rect x="0" y="1968" width="345.7" height="16" fill="url(#goGrad2)" rx="3"/>
  <text x="351.7" y="1980" font-family="system-ui,sans-serif" font-size="10" fill="#0E7490">231.36 µs</text>
  <rect x="0" y="1988" width="362.9" height="16" fill="url(#tsGrad2)" rx="3"/>
  <text x="368.9" y="2000" font-family="system-ui,sans-serif" font-size="10" fill="#1E40AF">427.77 µs</text>
  <text x="-10" y="2042" text-anchor="end" font-family="system-ui,sans-serif" font-size="11.5" fill="#4B5563">Token Metadata</text>
  <rect x="0" y="2020" width="350.5" height="16" fill="url(#goGrad2)" rx="3"/>
  <text x="356.5" y="2032" font-family="system-ui,sans-serif" font-size="10" fill="#0E7490">274.70 µs</text>
  <rect x="0" y="2040" width="363.3" height="16" fill="url(#tsGrad2)" rx="3"/>
  <text x="369.3" y="2052" font-family="system-ui,sans-serif" font-size="10" fill="#1E40AF">433.71 µs</text>
  <text x="-10" y="2094" text-anchor="end" font-family="system-ui,sans-serif" font-size="11.5" fill="#4B5563">Multi-Contract</text>
  <rect x="0" y="2072" width="351.4" height="16" fill="url(#goGrad2)" rx="3"/>
  <text x="357.4" y="2084" font-family="system-ui,sans-serif" font-size="10" fill="#0E7490">283.63 µs</text>
  <rect x="0" y="2092" width="365.3" height="16" fill="url(#tsGrad2)" rx="3"/>
  <text x="371.3" y="2104" font-family="system-ui,sans-serif" font-size="10" fill="#1E40AF">466.24 µs</text>
  <text x="-10" y="2146" text-anchor="end" font-family="system-ui,sans-serif" font-size="11.5" fill="#4B5563">10 Calls</text>
  <rect x="0" y="2124" width="353.3" height="16" fill="url(#goGrad2)" rx="3"/>
  <text x="359.3" y="2136" font-family="system-ui,sans-serif" font-size="10" fill="#0E7490">303.54 µs</text>
  <rect x="0" y="2144" width="369.5" height="16" fill="url(#tsGrad2)" rx="3"/>
  <text x="375.5" y="2156" font-family="system-ui,sans-serif" font-size="10" fill="#1E40AF">542.08 µs</text>
  <text x="-10" y="2198" text-anchor="end" font-family="system-ui,sans-serif" font-size="11.5" fill="#4B5563">Deployless</text>
  <rect x="0" y="2176" width="360.5" height="16" fill="url(#goGrad2)" rx="3"/>
  <text x="366.5" y="2188" font-family="system-ui,sans-serif" font-size="10" fill="#0E7490">392.79 µs</text>
  <rect x="0" y="2196" width="373.5" height="16" fill="url(#tsGrad2)" rx="3"/>
  <text x="379.5" y="2208" font-family="system-ui,sans-serif" font-size="10" fill="#1E40AF">624.71 µs</text>
  <text x="-10" y="2250" text-anchor="end" font-family="system-ui,sans-serif" font-size="11.5" fill="#4B5563">30 Calls</text>
  <rect x="0" y="2228" width="371.2" height="16" fill="url(#goGrad2)" rx="3"/>
  <text x="377.2" y="2240" font-family="system-ui,sans-serif" font-size="10" fill="#0E7490">576.19 µs</text>
  <rect x="0" y="2248" width="387.6" height="16" fill="url(#tsGrad2)" rx="3"/>
  <text x="393.6" y="2260" font-family="system-ui,sans-serif" font-size="10" fill="#1E40AF">1.03 ms</text>
  <text x="-10" y="2302" text-anchor="end" font-family="system-ui,sans-serif" font-size="11.5" fill="#4B5563">50 Calls</text>
  <rect x="0" y="2280" width="383.3" height="16" fill="url(#goGrad2)" rx="3"/>
  <text x="389.3" y="2292" font-family="system-ui,sans-serif" font-size="10" fill="#0E7490">888.23 µs</text>
  <rect x="0" y="2300" width="397.4" height="16" fill="url(#tsGrad2)" rx="3"/>
  <text x="403.4" y="2312" font-family="system-ui,sans-serif" font-size="10" fill="#1E40AF">1.47 ms</text>
  <text x="-10" y="2354" text-anchor="end" font-family="system-ui,sans-serif" font-size="11.5" fill="#4B5563">100 Mixed</text>
  <rect x="0" y="2332" width="395.8" height="16" fill="url(#goGrad2)" rx="3"/>
  <text x="401.8" y="2344" font-family="system-ui,sans-serif" font-size="10" fill="#0E7490">1.39 ms</text>
  <rect x="0" y="2352" width="413.6" height="16" fill="url(#tsGrad2)" rx="3"/>
  <text x="419.6" y="2364" font-family="system-ui,sans-serif" font-size="10" fill="#1E40AF">2.61 ms</text>
  <text x="-10" y="2406" text-anchor="end" font-family="system-ui,sans-serif" font-size="11.5" fill="#4B5563">100 Calls</text>
  <rect x="0" y="2384" width="396.0" height="16" fill="url(#goGrad2)" rx="3"/>
  <text x="402.0" y="2396" font-family="system-ui,sans-serif" font-size="10" fill="#0E7490">1.39 ms</text>
  <rect x="0" y="2404" width="413.8" height="16" fill="url(#tsGrad2)" rx="3"/>
  <text x="419.8" y="2416" font-family="system-ui,sans-serif" font-size="10" fill="#1E40AF">2.63 ms</text>
  <text x="-10" y="2458" text-anchor="end" font-family="system-ui,sans-serif" font-size="11.5" fill="#4B5563">200 Calls</text>
  <rect x="0" y="2436" width="412.7" height="16" fill="url(#goGrad2)" rx="3"/>
  <text x="418.7" y="2448" font-family="system-ui,sans-serif" font-size="10" fill="#0E7490">2.53 ms</text>
  <rect x="0" y="2456" width="433.5" height="16" fill="url(#tsGrad2)" rx="3"/>
  <text x="439.5" y="2468" font-family="system-ui,sans-serif" font-size="10" fill="#1E40AF">5.34 ms</text>
  <text x="-10" y="2510" text-anchor="end" font-family="system-ui,sans-serif" font-size="11.5" fill="#4B5563">500 Calls</text>
  <rect x="0" y="2488" width="424.9" height="16" fill="url(#goGrad2)" rx="3"/>
  <text x="430.9" y="2500" font-family="system-ui,sans-serif" font-size="10" fill="#0E7490">3.92 ms</text>
  <rect x="0" y="2508" width="454.4" height="16" fill="url(#tsGrad2)" rx="3"/>
  <text x="460.4" y="2520" font-family="system-ui,sans-serif" font-size="10" fill="#1E40AF">11.26 ms</text>
  <text x="-10" y="2562" text-anchor="end" font-family="system-ui,sans-serif" font-size="11.5" fill="#4B5563">1K Calls</text>
  <rect x="0" y="2540" width="438.3" height="16" fill="url(#goGrad2)" rx="3"/>
  <text x="444.3" y="2552" font-family="system-ui,sans-serif" font-size="10" fill="#0E7490">6.33 ms</text>
  <rect x="0" y="2560" width="472.3" height="16" fill="url(#tsGrad2)" rx="3"/>
  <text x="478.3" y="2572" font-family="system-ui,sans-serif" font-size="10" fill="#1E40AF">21.35 ms</text>
  <text x="-10" y="2614" text-anchor="end" font-family="system-ui,sans-serif" font-size="11.5" fill="#4B5563">10K Chunked</text>
  <rect x="0" y="2592" width="482.1" height="16" fill="url(#goGrad2)" rx="3"/>
  <text x="488.1" y="2604" font-family="system-ui,sans-serif" font-size="10" fill="#0E7490">30.26 ms</text>
  <rect x="0" y="2612" width="537.2" height="16" fill="url(#tsGrad2)" rx="3"/>
  <text x="543.2" y="2624" font-family="system-ui,sans-serif" font-size="10" fill="#1E40AF">217.00 ms</text>
  <text x="-10" y="2666" text-anchor="end" font-family="system-ui,sans-serif" font-size="11.5" fill="#4B5563">10K Aggressive</text>
  <rect x="0" y="2644" width="484.2" height="16" fill="url(#goGrad2)" rx="3"/>
  <text x="490.2" y="2656" font-family="system-ui,sans-serif" font-size="10" fill="#0E7490">32.62 ms</text>
  <rect x="0" y="2664" width="538.0" height="16" fill="url(#tsGrad2)" rx="3"/>
  <text x="544.0" y="2676" font-family="system-ui,sans-serif" font-size="10" fill="#1E40AF">223.26 ms</text>
  <text x="-10" y="2718" text-anchor="end" font-family="system-ui,sans-serif" font-size="11.5" fill="#4B5563">10K Single RPC</text>
  <rect x="0" y="2696" width="521.4" height="16" fill="url(#goGrad2)" rx="3"/>
  <text x="527.4" y="2708" font-family="system-ui,sans-serif" font-size="10" fill="#0E7490">123.07 ms</text>
  <rect x="0" y="2716" width="548.5" height="16" fill="url(#tsGrad2)" rx="3"/>
  <text x="554.5" y="2728" font-family="system-ui,sans-serif" font-size="10" fill="#1E40AF">324.35 ms</text>
  <text x="-10" y="2764" text-anchor="end" font-family="system-ui,sans-serif" font-size="13" font-weight="700" fill="#1F2937">Signature</text>
  <text x="-10" y="2806" text-anchor="end" font-family="system-ui,sans-serif" font-size="11.5" fill="#4B5563">Parse Signature</text>
  <rect x="0" y="2784" width="146.2" height="16" fill="url(#goGrad2)" rx="3"/>
  <text x="152.2" y="2796" font-family="system-ui,sans-serif" font-size="10" fill="#0E7490">185.6 ns</text>
  <rect x="0" y="2804" width="211.4" height="16" fill="url(#tsGrad2)" rx="3"/>
  <text x="217.4" y="2816" font-family="system-ui,sans-serif" font-size="10" fill="#1E40AF">1.91 µs</text>
  <text x="-10" y="2858" text-anchor="end" font-family="system-ui,sans-serif" font-size="11.5" fill="#4B5563">HashMessage</text>
  <rect x="0" y="2836" width="185.3" height="16" fill="url(#goGrad2)" rx="3"/>
  <text x="191.3" y="2848" font-family="system-ui,sans-serif" font-size="10" fill="#0E7490">751.7 ns</text>
  <rect x="0" y="2856" width="253.1" height="16" fill="url(#tsGrad2)" rx="3"/>
  <text x="259.1" y="2868" font-family="system-ui,sans-serif" font-size="10" fill="#1E40AF">8.46 µs</text>
  <text x="-10" y="2910" text-anchor="end" font-family="system-ui,sans-serif" font-size="11.5" fill="#4B5563">HashMessage Long</text>
  <rect x="0" y="2888" width="208.4" height="16" fill="url(#goGrad2)" rx="3"/>
  <text x="214.4" y="2900" font-family="system-ui,sans-serif" font-size="10" fill="#0E7490">1.71 µs</text>
  <rect x="0" y="2908" width="274.6" height="16" fill="url(#tsGrad2)" rx="3"/>
  <text x="280.6" y="2920" font-family="system-ui,sans-serif" font-size="10" fill="#1E40AF">18.26 µs</text>
  <text x="-10" y="2962" text-anchor="end" font-family="system-ui,sans-serif" font-size="11.5" fill="#4B5563">Verify Message</text>
  <rect x="0" y="2940" width="284.5" height="16" fill="url(#goGrad2)" rx="3"/>
  <text x="290.5" y="2952" font-family="system-ui,sans-serif" font-size="10" fill="#0E7490">25.94 µs</text>
  <rect x="0" y="2960" width="400.6" height="16" fill="url(#tsGrad2)" rx="3"/>
  <text x="406.6" y="2972" font-family="system-ui,sans-serif" font-size="10" fill="#1E40AF">1.64 ms</text>
  <text x="-10" y="3014" text-anchor="end" font-family="system-ui,sans-serif" font-size="11.5" fill="#4B5563">Recover Address</text>
  <rect x="0" y="2992" width="284.5" height="16" fill="url(#goGrad2)" rx="3"/>
  <text x="290.5" y="3004" font-family="system-ui,sans-serif" font-size="10" fill="#0E7490">25.98 µs</text>
  <rect x="0" y="3012" width="399.7" height="16" fill="url(#tsGrad2)" rx="3"/>
  <text x="405.7" y="3024" font-family="system-ui,sans-serif" font-size="10" fill="#1E40AF">1.59 ms</text>
  <text x="-10" y="3060" text-anchor="end" font-family="system-ui,sans-serif" font-size="13" font-weight="700" fill="#1F2937">Unit</text>
  <text x="-10" y="3102" text-anchor="end" font-family="system-ui,sans-serif" font-size="11.5" fill="#4B5563">FormatUnits</text>
  <rect x="0" y="3080" width="127.7" height="16" fill="url(#goGrad2)" rx="3"/>
  <text x="133.7" y="3092" font-family="system-ui,sans-serif" font-size="10" fill="#0E7490">96.0 ns</text>
  <rect x="0" y="3100" width="139.0" height="16" fill="url(#tsGrad2)" rx="3"/>
  <text x="145.0" y="3112" font-family="system-ui,sans-serif" font-size="10" fill="#1E40AF">143.6 ns</text>
  <text x="-10" y="3154" text-anchor="end" font-family="system-ui,sans-serif" font-size="11.5" fill="#4B5563">ParseUnits(6)</text>
  <rect x="0" y="3132" width="128.2" height="16" fill="url(#goGrad2)" rx="3"/>
  <text x="134.2" y="3144" font-family="system-ui,sans-serif" font-size="10" fill="#0E7490">97.6 ns</text>
  <rect x="0" y="3152" width="150.0" height="16" fill="url(#tsGrad2)" rx="3"/>
  <text x="156.0" y="3164" font-family="system-ui,sans-serif" font-size="10" fill="#1E40AF">212.5 ns</text>
  <text x="-10" y="3206" text-anchor="end" font-family="system-ui,sans-serif" font-size="11.5" fill="#4B5563">ParseGwei</text>
  <rect x="0" y="3184" width="128.9" height="16" fill="url(#goGrad2)" rx="3"/>
  <text x="134.9" y="3196" font-family="system-ui,sans-serif" font-size="10" fill="#0E7490">99.9 ns</text>
  <rect x="0" y="3204" width="150.6" height="16" fill="url(#tsGrad2)" rx="3"/>
  <text x="156.6" y="3216" font-family="system-ui,sans-serif" font-size="10" fill="#1E40AF">217.5 ns</text>
  <text x="-10" y="3258" text-anchor="end" font-family="system-ui,sans-serif" font-size="11.5" fill="#4B5563">ParseEther</text>
  <rect x="0" y="3236" width="132.0" height="16" fill="url(#goGrad2)" rx="3"/>
  <text x="138.0" y="3248" font-family="system-ui,sans-serif" font-size="10" fill="#0E7490">111.7 ns</text>
  <rect x="0" y="3256" width="153.5" height="16" fill="url(#tsGrad2)" rx="3"/>
  <text x="159.5" y="3268" font-family="system-ui,sans-serif" font-size="10" fill="#1E40AF">241.1 ns</text>
  <text x="-10" y="3310" text-anchor="end" font-family="system-ui,sans-serif" font-size="11.5" fill="#4B5563">FormatEther</text>
  <rect x="0" y="3288" width="132.9" height="16" fill="url(#goGrad2)" rx="3"/>
  <text x="138.9" y="3300" font-family="system-ui,sans-serif" font-size="10" fill="#0E7490">115.4 ns</text>
  <rect x="0" y="3308" width="140.8" height="16" fill="url(#tsGrad2)" rx="3"/>
  <text x="146.8" y="3320" font-family="system-ui,sans-serif" font-size="10" fill="#1E40AF">153.3 ns</text>
  <text x="-10" y="3362" text-anchor="end" font-family="system-ui,sans-serif" font-size="11.5" fill="#4B5563">ParseEther Large</text>
  <rect x="0" y="3340" width="160.4" height="16" fill="url(#goGrad2)" rx="3"/>
  <text x="166.4" y="3352" font-family="system-ui,sans-serif" font-size="10" fill="#0E7490">308.0 ns</text>
  <rect x="0" y="3360" width="154.2" height="16" fill="url(#tsGrad2)" rx="3"/>
  <text x="160.2" y="3372" font-family="system-ui,sans-serif" font-size="10" fill="#1E40AF">246.6 ns</text>
</g>
<g transform="translate(340,3499)">
  <rect width="14" height="14" fill="#00ADD8" rx="3"/>
  <text x="18" y="11" font-family="system-ui,sans-serif" font-size="11" fill="#4B5563">Go (viem-go)</text>
  <rect x="120" width="14" height="14" fill="#3178C6" rx="3"/>
  <text x="138" y="11" font-family="system-ui,sans-serif" font-size="11" fill="#4B5563">TypeScript (viem)</text>
</g>
</svg>