<svg xmlns="http://www.w3.org/2000/svg" width="880" height="3527" viewBox="0 0 880 3527">
<defs>
  <linearGradient id="goGrad2" x1="0" y1="0" x2="1" y2="0">
    <stop offset="0%" stop-color="#00ADD8" stop-opacity="0.9"/>
    <stop offset="100%" stop-color="#0891B2" stop-opacity="0.8"/>
  </linearGradient>
  <linearGradient id="tsGrad2" x1="0" y1="0" x2="1" y2="0">
    <stop offset="0%" stop-color="#3178C6" stop-opacity="0.9"/>
    <stop offset="100%" stop-color="#1D4ED8" stop-opacity="0.8"/>
  </linearGradient>
</defs>
<rect width="880" height="3527" fill="#FAFAFA" rx="12"/>
<rect x=".5" y=".5" width="879" height="3526" fill="none" stroke="#E5E7EB" rx="12"/>
<text x="440" y="34" text-anchor="middle" font-family="system-ui,sans-serif" font-size="18" font-weight="700" fill="#111827">Latency Comparison: Go vs TypeScript</text>
<text x="440" y="54" text-anchor="middle" font-family="system-ui,sans-serif" font-size="12" fill="#6B7280">Nanoseconds per operation (lower is better) &#183; log scale</text>
<g transform="translate(200,80)">
  <line x1="0.0" y1="0" x2="0.0" y2="3392" stroke="#E5E7EB"/>
  <text x="0.0" y="3408" text-anchor="middle" font-family="system-ui,sans-serif" font-size="10" fill="#9CA3AF">1ns</text>
  <line x1="64.4" y1="0" x2="64.4" y2="3392" stroke="#E5E7EB"/>
  <text x="64.4" y="3408" text-anchor="middle" font-family="system-ui,sans-serif" font-size="10" fill="#9CA3AF">10ns</text>
  <line x1="128.9" y1="0" x2="128.9" y2="3392" stroke="#E5E7EB"/>
  <text x="128.9" y="3408" text-anchor="middle" font-family="system-ui,sans-serif" font-size="10" fill="#9CA3AF">100ns</text>
  <line x1="193.3" y1="0" x2="193.3" y2="3392" stroke="#E5E7EB"/>
  <text x="193.3" y="3408" text-anchor="middle" font-family="system-ui,sans-serif" font-size="10" fill="#9CA3AF">1&#181;s</text>
  <line x1="257.8" y1="0" x2="257.8" y2="3392" stroke="#E5E7EB"/>
  <text x="257.8" y="3408" text-anchor="middle" font-family="system-ui,sans-serif" font-size="10" fill="#9CA3AF">10&#181;s</text>
  <line x1="322.2" y1="0" x2="322.2" y2="3392" stroke="#E5E7EB"/>
  <text x="322.2" y="3408" text-anchor="middle" font-family="system-ui,sans-serif" font-size="10" fill="#9CA3AF">100&#181;s</text>
  <line x1="386.7" y1="0" x2="386.7" y2="3392" stroke="#E5E7EB"/>
  <text x="386.7" y="3408" text-anchor="middle" font-family="system-ui,sans-serif" font-size="10" fill="#9CA3AF">1ms</text>
  <line x1="451.1" y1="0" x2="451.1" y2="3392" stroke="#E5E7EB"/>
  <text x="451.1" y="3408" text-anchor="middle" font-family="system-ui,sans-serif" font-size="10" fill="#9CA3AF">10ms</text>
  <line x1="515.6" y1="0" x2="515.6" y2="3392" stroke="#E5E7EB"/>
  <text x="515.6" y="3408" text-anchor="middle" font-family="system-ui,sans-serif" font-size="10" fill="#9CA3AF">100ms</text>
  <line x1="580.0" y1="0" x2="580.0" y2="3392" stroke="#E5E7EB"/>
  <text x="580.0" y="3408" text-anchor="middle" font-family="system-ui,sans-serif" font-size="10" fill="#9CA3AF">1s</text>
  <text x="-10" y="16" text-anchor="end" font-family="system-ui,sans-serif" font-size="13" font-weight="700" fill="#1F2937">Abi</text>
  <text x="-10" y="58" text-anchor="end" font-family="system-ui,sans-serif" font-size="11.5" fill="#4B5563">Decode Result</text>
  <rect x="0" y="36" width="132.7" height="16" fill="url(#goGrad2)" rx="3"/>
  <text x="138.7" y="48" font-family="system-ui,sans-serif" font-size="10" fill="#0E7490">114.5 ns</text>
  <rect x="0" y="56" width="192.7" height="16" fill="url(#tsGrad2)" rx="3"/>
  <text x="198.7" y="68" font-family="system-ui,sans-serif" font-size="10" fill="#1E40AF">977.4 ns</text>
  <text x="-10" y="110" text-anchor="end" font-family="system-ui,sans-serif" font-size="11.5" fill="#4B5563">Encode Simple</text>
  <rect x="0" y="88" width="150.3" height="16" fill="url(#goGrad2)" rx="3"/>
  <text x="156.3" y="100" font-family="system-ui,sans-serif" font-size="10" fill="#0E7490">214.6 ns</text>
  <rect x="0" y="108" width="247.1" height="16" fill="url(#tsGrad2)" rx="3"/>
  <text x="253.1" y="120" font-family="system-ui,sans-serif" font-size="10" fill="#1E40AF">6.83 µs</text>
  <text x="-10" y="162" text-anchor="end" font-family="system-ui,sans-serif" font-size="11.5" fill="#4B5563">EncodePacked Multi</text>
  <rect x="0" y="140" width="172.9" height="16" fill="url(#goGrad2)" rx="3"/>
  <text x="178.9" y="152" font-family="system-ui,sans-serif" font-size="10" fill="#0E7490">482.6 ns</text>
  <rect x="0" y="160" width="198.0" height="16" fill="url(#tsGrad2)" rx="3"/>
  <text x="204.0" y="172" font-family="system-ui,sans-serif" font-size="10" fill="#1E40AF">1.18 µs</text>
  <text x="-10" y="214" text-anchor="end" font-family="system-ui,sans-serif" font-size="11.5" fill="#4B5563">EncodePacked</text>
  <rect x="0" y="192" width="175.2" height="16" fill="url(#goGrad2)" rx="3"/>
  <text x="181.2" y="204" font-family="system-ui,sans-serif" font-size="10" fill="#0E7490">523.0 ns</text>
  <rect x="0" y="212" width="182.1" height="16" fill="url(#tsGrad2)" rx="3"/>
  <text x="188.1" y="224" font-family="system-ui,sans-serif" font-size="10" fill="#1E40AF">670.0 ns</text>
  <text x="-10" y="266" text-anchor="end" font-family="system-ui,sans-serif" font-size="11.5" fill="#4B5563">Encode Complex</text>
  <rect x="0" y="244" width="176.3" height="16" fill="url(#goGrad2)" rx="3"/>
  <text x="182.3" y="256" font-family="system-ui,sans-serif" font-size="10" fill="#0E7490">544.0 ns</text>
  <rect x="0" y="264" width="250.4" height="16" fill="url(#tsGrad2)" rx="3"/>
  <text x="256.4" y="276" font-family="system-ui,sans-serif" font-size="10" fill="#1E40AF">7.68 µs</text>
  <text x="-10" y="318" text-anchor="end" font-family="system-ui,sans-serif" font-size="11.5" fill="#4B5563">Encode 3-Arg</text>
  <rect x="0" y="296" width="182.8" height="16" fill="url(#goGrad2)" rx="3"/>
  <text x="188.8" y="308" font-family="system-ui,sans-serif" font-size="10" fill="#0E7490">685.4 ns</text>
  <rect x="0" y="316" width="252.6" height="16" fill="url(#tsGrad2)" rx="3"/>
  <text x="258.6" y="328" font-family="system-ui,sans-serif" font-size="10" fill="#1E40AF">8.32 µs</text>
  <text x="-10" y="364" text-anchor="end" font-family="system-ui,sans-serif" font-size="13" font-weight="700" fill="#1F2937">Address</text>
  <text x="-10" y="406" text-anchor="end" font-family="system-ui,sans-serif" font-size="11.5" fill="#4B5563">IsAddress</text>
  <rect x="0" y="384" width="102.0" height="16" fill="url(#goGrad2)" rx="3"/>
  <text x="108.0" y="396" font-family="system-ui,sans-serif" font-size="10" fill="#0E7490">38.3 ns</text>
  <rect x="0" y="404" width="152.6" height="16" fill="url(#tsGrad2)" rx="3"/>
  <text x="158.6" y="416" font-family="system-ui,sans-serif" font-size="10" fill="#1E40AF">232.9 ns</text>
  <text x="-10" y="458" text-anchor="end" font-family="system-ui,sans-serif" font-size="11.5" fill="#4B5563">IsAddress Lower</text>
  <rect x="0" y="436" width="114.0" height="16" fill="url(#goGrad2)" rx="3"/>
  <text x="120.0" y="448" font-family="system-ui,sans-serif" font-size="10" fill="#0E7490">58.7 ns</text>
  <rect x="0" y="456" width="153.3" height="16" fill="url(#tsGrad2)" rx="3"/>
  <text x="159.3" y="468" font-family="system-ui,sans-serif" font-size="10" fill="#1E40AF">239.3 ns</text>
  <text x="-10" y="510" text-anchor="end" font-family="system-ui,sans-serif" font-size="11.5" fill="#4B5563">Checksum</text>
  <rect x="0" y="488" width="128.6" height="16" fill="url(#goGrad2)" rx="3"/>
  <text x="134.6" y="500" font-family="system-ui,sans-serif" font-size="10" fill="#0E7490">98.9 ns</text>
  <rect x="0" y="508" width="174.7" height="16" fill="url(#tsGrad2)" rx="3"/>
  <text x="180.7" y="520" font-family="system-ui,sans-serif" font-size="10" fill="#1E40AF">514.0 ns</text>
  <text x="-10" y="562" text-anchor="end" font-family="system-ui,sans-serif" font-size="11.5" fill="#4B5563">CREATE2</text>
  <rect x="0" y="540" width="195.5" height="16" fill="url(#goGrad2)" rx="3"/>
  <text x="201.5" y="552" font-family="system-ui,sans-serif" font-size="10" fill="#0E7490">1.08 µs</text>
  <rect x="0" y="560" width="265.6" height="16" fill="url(#tsGrad2)" rx="3"/>
  <text x="271.6" y="572" font-family="system-ui,sans-serif" font-size="10" fill="#1E40AF">13.23 µs</text>
  <text x="-10" y="614" text-anchor="end" font-family="system-ui,sans-serif" font-size="11.5" fill="#4B5563">CREATE</text>
  <rect x="0" y="592" width="197.7" height="16" fill="url(#goGrad2)" rx="3"/>
  <text x="203.7" y="604" font-family="system-ui,sans-serif" font-size="10" fill="#0E7490">1.17 µs</text>
  <rect x="0" y="612" width="248.4" height="16" fill="url(#tsGrad2)" rx="3"/>
  <text x="254.4" y="624" font-family="system-ui,sans-serif" font-size="10" fill="#1E40AF">7.16 µs</text>
  <text x="-10" y="660" text-anchor="end" font-family="system-ui,sans-serif" font-size="13" font-weight="700" fill="#1F2937">Call</text>
  <text x="-10" y="702" text-anchor="end" font-family="system-ui,sans-serif" font-size="11.5" fill="#4B5563">Decimals</text>
  <rect x="0" y="680" width="337.8" height="16" fill="url(#goGrad2)" rx="3"/>
  <text x="343.8" y="692" font-family="system-ui,sans-serif" font-size="10" fill="#0E7490">174.22 µs</text>
  <rect x="0" y="700" width="467.3" height="16" fill="url(#tsGrad2)" rx="3"/>
  <text x="473.3" y="712" font-family="system-ui,sans-serif" font-size="10" fill="#1E40AF">17.80 ms</text>
  <text x="-10" y="754" text-anchor="end" font-family="system-ui,sans-serif" font-size="11.5" fill="#4B5563">With Account</text>
  <rect x="0" y="732" width="338.0" height="16" fill="url(#goGrad2)" rx="3"/>
  <text x="344.0" y="744" font-family="system-ui,sans-serif" font-size="10" fill="#0E7490">175.64 µs</text>
  <rect x="0" y="752" width="346.7" height="16" fill="url(#tsGrad2)" rx="3"/>
  <text x="352.7" y="764" font-family="system-ui,sans-serif" font-size="10" fill="#1E40AF">239.67 µs</text>
  <text x="-10" y="806" text-anchor="end" font-family="system-ui,sans-serif" font-size="11.5" fill="#4B5563">Symbol</text>
  <rect x="0" y="784" width="338.8" height="16" fill="url(#goGrad2)" rx="3"/>
  <text x="344.8" y="796" font-family="system-ui,sans-serif" font-size="10" fill="#0E7490">180.64 µs</text>
  <rect x="0" y="804" width="467.7" height="16" fill="url(#tsGrad2)" rx="3"/>
  <text x="473.7" y="816" font-family="system-ui,sans-serif" font-size="10" fill="#1E40AF">18.07 ms</text>
  <text x="-10" y="858" text-anchor="end" font-family="system-ui,sans-serif" font-size="11.5" fill="#4B5563">BalanceOf Multi</text>
  <rect x="0" y="836" width="339.3" height="16" fill="url(#goGrad2)" rx="3"/>
  <text x="345.3" y="848" font-family="system-ui,sans-serif" font-size="10" fill="#0E7490">183.92 µs</text>
  <rect x="0" y="856" width="467.8" height="16" fill="url(#tsGrad2)" rx="3"/>
  <text x="473.8" y="868" font-family="system-ui,sans-serif" font-size="10" fill="#1E40AF">18.12 ms</text>
  <text x="-10" y="910" text-anchor="end" font-family="system-ui,sans-serif" font-size="11.5" fill="#4B5563">With Data</text>
  <rect x="0" y="888" width="339.8" height="16" fill="url(#goGrad2)" rx="3"/>
  <text x="345.8" y="900" font-family="system-ui,sans-serif" font-size="10" fill="#0E7490">187.54 µs</text>
  <rect x="0" y="908" width="468.7" height="16" fill="url(#tsGrad2)" rx="3"/>
  <text x="474.7" y="920" font-family="system-ui,sans-serif" font-size="10" fill="#1E40AF">18.74 ms</text>
  <text x="-10" y="962" text-anchor="end" font-family="system-ui,sans-serif" font-size="11.5" fill="#4B5563">Basic</text>
  <rect x="0" y="940" width="350.5" height="16" fill="url(#goGrad2)" rx="3"/>
  <text x="356.5" y="952" font-family="system-ui,sans-serif" font-size="10" fill="#0E7490">274.38 µs</text>
  <rect x="0" y="960" width="468.5" height="16" fill="url(#tsGrad2)" rx="3"/>
  <text x="474.5" y="972" font-family="system-ui,sans-serif" font-size="10" fill="#1E40AF">18.60 ms</text>
  <text x="-10" y="1008" text-anchor="end" font-family="system-ui,sans-serif" font-size="13" font-weight="700" fill="#1F2937">Ens</text>
  <text x="-10" y="1050" text-anchor="end" font-family="system-ui,sans-serif" font-size="11.5" fill="#4B5563">Normalize</text>
  <rect x="0" y="1028" width="163.9" height="16" fill="url(#goGrad2)" rx="3"/>
  <text x="169.9" y="1040" font-family="system-ui,sans-serif" font-size="10" fill="#0E7490">349.1 ns</text>
  <rect x="0" y="1048" width="192.4" height="16" fill="url(#tsGrad2)" rx="3"/>
  <text x="198.4" y="1060" font-family="system-ui,sans-serif" font-size="10" fill="#1E40AF">966.3 ns</text>
  <text x="-10" y="1102" text-anchor="end" font-family="system-ui,sans-serif" font-size="11.5" fill="#4B5563">Labelhash</text>
  <rect x="0" y="1080" width="170.0" height="16" fill="url(#goGrad2)" rx="3"/>
  <text x="176.0" y="1092" font-family="system-ui,sans-serif" font-size="10" fill="#0E7490">433.9 ns</text>
  <rect x="0" y="1100" width="240.5" height="16" fill="url(#tsGrad2)" rx="3"/>
  <text x="246.5" y="1112" font-family="system-ui,sans-serif" font-size="10" fill="#1E40AF">5.40 µs</text>
  <text x="-10" y="1154" text-anchor="end" font-family="system-ui,sans-serif" font-size="11.5" fill="#4B5563">Normalize Long</text>
  <rect x="0" y="1132" width="189.8" height="16" fill="url(#goGrad2)" rx="3"/>
  <text x="195.8" y="1144" font-family="system-ui,sans-serif" font-size="10" fill="#0E7490">882.7 ns</text>
  <rect x="0" y="1152" width="219.6" height="16" fill="url(#tsGrad2)" rx="3"/>
  <text x="225.6" y="1164" font-family="system-ui,sans-serif" font-size="10" fill="#1E40AF">2.55 µs</text>
  <text x="-10" y="1206" text-anchor="end" font-family="system-ui,sans-serif" font-size="11.5" fill="#4B5563">Namehash</text>
  <rect x="0" y="1184" width="207.5" height="16" fill="url(#goGrad2)" rx="3"/>
  <text x="213.5" y="1196" font-family="system-ui,sans-serif" font-size="10" fill="#0E7490">1.66 µs</text>
  <rect x="0" y="1204" width="278.2" height="16" fill="url(#tsGrad2)" rx="3"/>
  <text x="284.2" y="1216" font-family="system-ui,sans-serif" font-size="10" fill="#1E40AF">20.76 µs</text>
  <text x="-10" y="1258" text-anchor="end" font-family="system-ui,sans-serif" font-size="11.5" fill="#4B5563">Namehash Deep</text>
  <rect x="0" y="1236" width="224.4" height="16" fill="url(#goGrad2)" rx="3"/>
  <text x="230.4" y="1248" font-family="system-ui,sans-serif" font-size="10" fill="#0E7490">3.03 µs</text>
  <rect x="0" y="1256" width="299.0" height="16" fill="url(#tsGrad2)" rx="3"/>
  <text x="305.0" y="1268" font-family="system-ui,sans-serif" font-size="10" fill="#1E40AF">43.59 µs</text>
  <text x="-10" y="1304" text-anchor="end" font-family="system-ui,sans-serif" font-size="13" font-weight="700" fill="#1F2937">Event</text>
  <text x="-10" y="1346" text-anchor="end" font-family="system-ui,sans-serif" font-size="11.5" fill="#4B5563">Decode Transfer</text>
  <rect x="0" y="1324" width="180.8" height="16" fill="url(#goGrad2)" rx="3"/>
  <text x="186.8" y="1336" font-family="system-ui,sans-serif" font-size="10" fill="#0E7490">639.2 ns</text>
  <rect x="0" y="1344" width="258.4" height="16" fill="url(#tsGrad2)" rx="3"/>
  <text x="264.4" y="1356" font-family="system-ui,sans-serif" font-size="10" fill="#1E40AF">10.21 µs</text>
  <text x="-10" y="1398" text-anchor="end" font-family="system-ui,sans-serif" font-size="11.5" fill="#4B5563">Decode Batch 10</text>
  <rect x="0" y="1376" width="232.0" height="16" fill="url(#goGrad2)" rx="3"/>
  <text x="238.0" y="1388" font-family="system-ui,sans-serif" font-size="10" fill="#0E7490">3.98 µs</text>
  <rect x="0" y="1396" width="323.2" height="16" fill="url(#tsGrad2)" rx="3"/>
  <text x="329.2" y="1408" font-family="system-ui,sans-serif" font-size="10" fill="#1E40AF">103.64 µs</text>
  <text x="-10" y="1450" text-anchor="end" font-family="system-ui,sans-serif" font-size="11.5" fill="#4B5563">Decode Batch 100</text>
  <rect x="0" y="1428" width="296.4" height="16" fill="url(#goGrad2)" rx="3"/>
  <text x="302.4" y="1440" font-family="system-ui,sans-serif" font-size="10" fill="#0E7490">39.74 µs</text>
  <rect x="0" y="1448" width="386.5" height="16" fill="url(#tsGrad2)" rx="3"/>
  <text x="392.5" y="1460" font-family="system-ui,sans-serif" font-size="10" fill="#1E40AF">992.82 µs</text>
  <text x="-10" y="1496" text-anchor="end" font-family="system-ui,sans-serif" font-size="13" font-weight="700" fill="#1F2937">Hash</text>
  <text x="-10" y="1538" text-anchor="end" font-family="system-ui,sans-serif" font-size="11.5" fill="#4B5563">SHA-256 Short</text>
  <rect x="0" y="1516" width="142.2" height="16" fill="url(#goGrad2)" rx="3"/>
  <text x="148.2" y="1528" font-family="system-ui,sans-serif" font-size="10" fill="#0E7490">161.0 ns</text>
  <rect x="0" y="1536" width="203.3" height="16" fill="url(#tsGrad2)" rx="3"/>
  <text x="209.3" y="1548" font-family="system-ui,sans-serif" font-size="10" fill="#1E40AF">1.43 µs</text>
  <text x="-10" y="1590" text-anchor="end" font-family="system-ui,sans-serif" font-size="11.5" fill="#4B5563">Keccak256 Short</text>
  <rect x="0" y="1568" width="170.0" height="16" fill="url(#goGrad2)" rx="3"/>
  <text x="176.0" y="1580" font-family="system-ui,sans-serif" font-size="10" fill="#0E7490">434.5 ns</text>
  <rect x="0" y="1588" width="277.4" height="16" fill="url(#tsGrad2)" rx="3"/>
  <text x="283.4" y="1600" font-family="system-ui,sans-serif" font-size="10" fill="#1E40AF">20.17 µs</text>
  <text x="-10" y="1642" text-anchor="end" font-family="system-ui,sans-serif" font-size="11.5" fill="#4B5563">Keccak256 Hex</text>
  <rect x="0" y="1620" width="171.6" height="16" fill="url(#goGrad2)" rx="3"/>
  <text x="177.6" y="1632" font-family="system-ui,sans-serif" font-size="10" fill="#0E7490">459.7 ns</text>
  <rect x="0" y="1640" width="239.8" height="16" fill="url(#tsGrad2)" rx="3"/>
  <text x="245.8" y="1652" font-family="system-ui,sans-serif" font-size="10" fill="#1E40AF">5.26 µs</text>
  <text x="-10" y="1694" text-anchor="end" font-family="system-ui,sans-serif" font-size="11.5" fill="#4B5563">SHA-256 Long</text>
  <rect x="0" y="1672" width="180.5" height="16" fill="url(#goGrad2)" rx="3"/>
  <text x="186.5" y="1684" font-family="system-ui,sans-serif" font-size="10" fill="#0E7490">632.1 ns</text>
  <rect x="0" y="1692" width="264.8" height="16" fill="url(#tsGrad2)" rx="3"/>
  <text x="270.8" y="1704" font-family="system-ui,sans-serif" font-size="10" fill="#1E40AF">12.86 µs</text>
  <text x="-10" y="1746" text-anchor="end" font-family="system-ui,sans-serif" font-size="11.5" fill="#4B5563">Fn Selector</text>
  <rect x="0" y="1724" width="211.6" height="16" fill="url(#goGrad2)" rx="3"/>
  <text x="217.6" y="1736" font-family="system-ui,sans-serif" font-size="10" fill="#0E7490">1.92 µs</text>
  <rect x="0" y="1744" width="244.9" height="16" fill="url(#tsGrad2)" rx="3"/>
  <text x="250.9" y="1756" font-family="system-ui,sans-serif" font-size="10" fill="#1E40AF">6.32 µs</text>
  <text x="-10" y="1798" text-anchor="end" font-family="system-ui,sans-serif" font-size="11.5" fill="#4B5563">Event Selector</text>
  <rect x="0" y="1776" width="217.6" height="16" fill="url(#goGrad2)" rx="3"/>
  <text x="223.6" y="1788" font-family="system-ui,sans-serif" font-size="10" fill="#0E7490">2.38 µs</text>
  <rect x="0" y="1796" width="245.4" height="16" fill="url(#tsGrad2)" rx="3"/>
  <text x="251.4" y="1808" font-family="system-ui,sans-serif" font-size="10" fill="#1E40AF">6.42 µs</text>
  <text x="-10" y="1850" text-anchor="end" font-family="system-ui,sans-serif" font-size="11.5" fill="#4B5563">Keccak256 Long</text>
  <rect x="0" y="1828" width="222.3" height="16" fill="url(#goGrad2)" rx="3"/>
  <text x="228.3" y="1840" font-family="system-ui,sans-serif" font-size="10" fill="#0E7490">2.81 µs</text>
  <rect x="0" y="1848" width="302.1" height="16" fill="url(#tsGrad2)" rx="3"/>
  <text x="308.1" y="1860" font-family="system-ui,sans-serif" font-size="10" fill="#1E40AF">48.70 µs</text>
  <text x="-10" y="1896" text-anchor="end" font-family="system-ui,sans-serif" font-size="13" font-weight="700" fill="#1F2937">Multicall</text>
  <text x="-10" y="1938" text-anchor="end" font-family="system-ui,sans-serif" font-size="11.5" fill="#4B5563">Basic</text>
  <rect x="0" y="1916" width="339.1" height="16" fill="url(#goGrad2)" rx="3"/>
  <text x="345.1" y="1928" font-family="system-ui,sans-serif" font-size="10" fill="#0E7490">182.79 µs</text>
  <rect x="0" y="1936" width="364.9" height="16" fill="url(#tsGrad2)" rx="3"/>
  <text x="370.9" y="1948" font-family="system-ui,sans-serif" font-size="10" fill="#1E40AF">459.46 µs</text>
  <text x="-10" y="1990" text-anchor="end" font-family="system-ui,sans-serif" font-size="11.5" fill="#4B5563">With Args</text>
  <rect x="0" y="1968" width="340.1" height="16" fill="url(#goGrad2)" rx="3"/>
  <text x="346.1" y="1980" font-family="system-ui,sans-serif" font-size="10" fill="#0E7490">189.19 µs</text>
  <rect x="0" y="1988" width="358.4" height="16" fill="url(#tsGrad2)" rx="3"/>
  <text x="364.4" y="2000" font-family="system-ui,sans-serif" font-size="10" fill="#1E40AF">364.05 µs</text>
  <text x="-10" y="2042" text-anchor="end" font-family="system-ui,sans-serif" font-size="11.5" fill="#4B5563">Token Metadata</text>
  <rect x="0" y="2020" width="342.0" height="16" fill="url(#goGrad2)" rx="3"/>
  <text x="348.0" y="2032" font-family="system-ui,sans-serif" font-size="10" fill="#0E7490">202.77 µs</text>
  <rect x="0" y="2040" width="359.0" height="16" fill="url(#tsGrad2)" rx="3"/>
  <text x="365.0" y="2052" font-family="system-ui,sans-serif" font-size="10" fill="#1E40AF">372.58 µs</text>
  <text x="-10" y="2094" text-anchor="end" font-family="system-ui,sans-serif" font-size="11.5" fill="#4B5563">Multi-Contract</text>
  <rect x="0" y="2072" width="344.4" height="16" fill="url(#goGrad2)" rx="3"/>
  <text x="350.4" y="2084" font-family="system-ui,sans-serif" font-size="10" fill="#0E7490">220.82 µs</text>
  <rect x="0" y="2092" width="359.2" height="16" fill="url(#tsGrad2)" rx="3"/>
  <text x="365.2" y="2104" font-family="system-ui,sans-serif" font-size="10" fill="#1E40AF">374.59 µs</text>
  <text x="-10" y="2146" text-anchor="end" font-family="system-ui,sans-serif" font-size="11.5" fill="#4B5563">10 Calls</text>
  <rect x="0" y="2124" width="345.3" height="16" fill="url(#goGrad2)" rx="3"/>
  <text x="351.3" y="2136" font-family="system-ui,sans-serif" font-size="10" fill="#0E7490">227.88 µs</text>
  <rect x="0" y="2144" width="365.2" height="16" fill="url(#tsGrad2)" rx="3"/>
  <text x="371.2" y="2156" font-family="system-ui,sans-serif" font-size="10" fill="#1E40AF">463.72 µs</text>
  <text x="-10" y="2198" text-anchor="end" font-family="system-ui,sans-serif" font-size="11.5" fill="#4B5563">Deployless</text>
  <rect x="0" y="2176" width="357.5" height="16" fill="url(#goGrad2)" rx="3"/>
  <text x="363.5" y="2188" font-family="system-ui,sans-serif" font-size="10" fill="#0E7490">352.43 µs</text>
  <rect x="0" y="2196" width="370.3" height="16" fill="url(#tsGrad2)" rx="3"/>
  <text x="376.3" y="2208" font-family="system-ui,sans-serif" font-size="10" fill="#1E40AF">558.14 µs</text>
  <text x="-10" y="2250" text-anchor="end" font-family="system-ui,sans-serif" font-size="11.5" fill="#4B5563">30 Calls</text>
  <rect x="0" y="2228" width="359.4" height="16" fill="url(#goGrad2)" rx="3"/>
  <text x="365.4" y="2240" font-family="system-ui,sans-serif" font-size="10" fill="#0E7490">377.19 µs</text>
  <rect x="0" y="2248" width="384.2" height="16" fill="url(#tsGrad2)" rx="3"/>
  <text x="390.2" y="2260" font-family="system-ui,sans-serif" font-size="10" fill="#1E40AF">914.26 µs</text>
  <text x="-10" y="2302" text-anchor="end" font-family="system-ui,sans-serif" font-size="11.5" fill="#4B5563">50 Calls</text>
  <rect x="0" y="2280" width="366.4" height="16" fill="url(#goGrad2)" rx="3"/>
  <text x="372.4" y="2292" font-family="system-ui,sans-serif" font-size="10" fill="#0E7490">484.16 µs</text>
  <rect x="0" y="2300" width="393.0" height="16" fill="url(#tsGrad2)" rx="3"/>
  <text x="399.0" y="2312" font-family="system-ui,sans-serif" font-size="10" fill="#1E40AF">1.25 ms</text>
  <text x="-10" y="2354" text-anchor="end" font-family="system-ui,sans-serif" font-size="11.5" fill="#4B5563">100 Mixed</text>
  <rect x="0" y="2332" width="381.9" height="16" fill="url(#goGrad2)" rx="3"/>
  <text x="387.9" y="2344" font-family="system-ui,sans-serif" font-size="10" fill="#0E7490">843.83 µs</text>
  <rect x="0" y="2352" width="408.1" height="16" fill="url(#tsGrad2)" rx="3"/>
  <text x="414.1" y="2364" font-family="system-ui,sans-serif" font-size="10" fill="#1E40AF">2.15 ms</text>
  <text x="-10" y="2406" text-anchor="end" font-family="system-ui,sans-serif" font-size="11.5" fill="#4B5563">100 Calls</text>
  <rect x="0" y="2384" width="382.8" height="16" fill="url(#goGrad2)" rx="3"/>
  <text x="388.8" y="2396" font-family="system-ui,sans-serif" font-size="10" fill="#0E7490">869.67 µs</text>
  <rect x="0" y="2404" width="408.1" height="16" fill="url(#tsGrad2)" rx="3"/>
  <text x="414.1" y="2416" font-family="system-ui,sans-serif" font-size="10" fill="#1E40AF">2.15 ms</text>
  <text x="-10" y="2458" text-anchor="end" font-family="system-ui,sans-serif" font-size="11.5" fill="#4B5563">200 Calls</text>
  <rect x="0" y="2436" width="396.3" height="16" fill="url(#goGrad2)" rx="3"/>
  <text x="402.3" y="2448" font-family="system-ui,sans-serif" font-size="10" fill="#0E7490">1.41 ms</text>
  <rect x="0" y="2456" width="427.8" height="16" fill="url(#tsGrad2)" rx="3"/>
  <text x="433.8" y="2468" font-family="system-ui,sans-serif" font-size="10" fill="#1E40AF">4.34 ms</text>
  <text x="-10" y="2510" text-anchor="end" font-family="system-ui,sans-serif" font-size="11.5" fill="#4B5563">500 Calls</text>
  <rect x="0" y="2488" width="408.4" height="16" fill="url(#goGrad2)" rx="3"/>
  <text x="414.4" y="2500" font-family="system-ui,sans-serif" font-size="10" fill="#0E7490">2.17 ms</text>
  <rect x="0" y="2508" width="447.7" height="16" fill="url(#tsGrad2)" rx="3"/>
  <text x="453.7" y="2520" font-family="system-ui,sans-serif" font-size="10" fill="#1E40AF">8.86 ms</text>
  <text x="-10" y="2562" text-anchor="end" font-family="system-ui,sans-serif" font-size="11.5" fill="#4B5563">1K Calls</text>
  <rect x="0" y="2540" width="416.6" height="16" fill="url(#goGrad2)" rx="3"/>
  <text x="422.6" y="2552" font-family="system-ui,sans-serif" font-size="10" fill="#0E7490">2.91 ms</text>
  <rect x="0" y="2560" width="465.3" height="16" fill="url(#tsGrad2)" rx="3"/>
  <text x="471.3" y="2572" font-family="system-ui,sans-serif" font-size="10" fill="#1E40AF">16.61 ms</text>
  <text x="-10" y="2614" text-anchor="end" font-family="system-ui,sans-serif" font-size="11.5" fill="#4B5563">10K Chunked</text>
  <rect x="0" y="2592" width="468.4" height="16" fill="url(#goGrad2)" rx="3"/>
  <text x="474.4" y="2604" font-family="system-ui,sans-serif" font-size="10" fill="#0E7490">18.52 ms</text>
  <rect x="0" y="2612" width="529.5" height="16" fill="url(#tsGrad2)" rx="3"/>
  <text x="535.5" y="2624" font-family="system-ui,sans-serif" font-size="10" fill="#1E40AF">164.74 ms</text>
  <text x="-10" y="2666" text-anchor="end" font-family="system-ui,sans-serif" font-size="11.5" fill="#4B5563">10K Aggressive</text>
  <rect x="0" y="2644" width="473.6" height="16" fill="url(#goGrad2)" rx="3"/>
  <text x="479.6" y="2656" font-family="system-ui,sans-serif" font-size="10" fill="#0E7490">22.37 ms</text>
  <rect x="0" y="2664" width="528.9" height="16" fill="url(#tsGrad2)" rx="3"/>
  <text x="534.9" y="2676" font-family="system-ui,sans-serif" font-size="10" fill="#1E40AF">161.16 ms</text>
  <text x="-10" y="2718" text-anchor="end" font-family="system-ui,sans-serif" font-size="11.5" fill="#4B5563">10K Single RPC</text>
  <rect x="0" y="2696" width="504.2" height="16" fill="url(#goGrad2)" rx="3"/>
  <text x="510.2" y="2708" font-family="system-ui,sans-serif" font-size="10" fill="#0E7490">66.61 ms</text>
  <rect x="0" y="2716" width="529.2" height="16" fill="url(#tsGrad2)" rx="3"/>
  <text x="535.2" y="2728" font-family="system-ui,sans-serif" font-size="10" fill="#1E40AF">162.66 ms</text>
  <text x="-10" y="2764" text-anchor="end" font-family="system-ui,sans-serif" font-size="13" font-weight="700" fill="#1F2937">Signature</text>
  <text x="-10" y="2806" text-anchor="end" font-family="system-ui,sans-serif" font-size="11.5" fill="#4B5563">Parse Signature</text>
  <rect x="0" y="2784" width="146.7" height="16" fill="url(#goGrad2)" rx="3"/>
  <text x="152.7" y="2796" font-family="system-ui,sans-serif" font-size="10" fill="#0E7490">188.9 ns</text>
  <rect x="0" y="2804" width="208.8" height="16" fill="url(#tsGrad2)" rx="3"/>
  <text x="214.8" y="2816" font-family="system-ui,sans-serif" font-size="10" fill="#1E40AF">1.74 µs</text>
  <text x="-10" y="2858" text-anchor="end" font-family="system-ui,sans-serif" font-size="11.5" fill="#4B5563">HashMessage</text>
  <rect x="0" y="2836" width="186.1" height="16" fill="url(#goGrad2)" rx="3"/>
  <text x="192.1" y="2848" font-family="system-ui,sans-serif" font-size="10" fill="#0E7490">771.8 ns</text>
  <rect x="0" y="2856" width="246.7" height="16" fill="url(#tsGrad2)" rx="3"/>
  <text x="252.7" y="2868" font-family="system-ui,sans-serif" font-size="10" fill="#1E40AF">6.73 µs</text>
  <text x="-10" y="2910" text-anchor="end" font-family="system-ui,sans-serif" font-size="11.5" fill="#4B5563">HashMessage Long</text>
  <rect x="0" y="2888" width="209.9" height="16" fill="url(#goGrad2)" rx="3"/>
  <text x="215.9" y="2900" font-family="system-ui,sans-serif" font-size="10" fill="#0E7490">1.81 µs</text>
  <rect x="0" y="2908" width="268.2" height="16" fill="url(#tsGrad2)" rx="3"/>
  <text x="274.2" y="2920" font-family="system-ui,sans-serif" font-size="10" fill="#1E40AF">14.49 µs</text>
  <text x="-10" y="2962" text-anchor="end" font-family="system-ui,sans-serif" font-size="11.5" fill="#4B5563">Recover Address</text>
  <rect x="0" y="2940" width="284.4" height="16" fill="url(#goGrad2)" rx="3"/>
  <text x="290.4" y="2952" font-family="system-ui,sans-serif" font-size="10" fill="#0E7490">25.88 µs</text>
  <rect x="0" y="2960" width="399.3" height="16" fill="url(#tsGrad2)" rx="3"/>
  <text x="405.3" y="2972" font-family="system-ui,sans-serif" font-size="10" fill="#1E40AF">1.57 ms</text>
  <text x="-10" y="3014" text-anchor="end" font-family="system-ui,sans-serif" font-size="11.5" fill="#4B5563">Verify Message</text>
  <rect x="0" y="2992" width="284.6" height="16" fill="url(#goGrad2)" rx="3"/>
  <text x="290.6" y="3004" font-family="system-ui,sans-serif" font-size="10" fill="#0E7490">26.06 µs</text>
  <rect x="0" y="3012" width="398.8" height="16" fill="url(#tsGrad2)" rx="3"/>
  <text x="404.8" y="3024" font-family="system-ui,sans-serif" font-size="10" fill="#1E40AF">1.54 ms</text>
  <text x="-10" y="3060" text-anchor="end" font-family="system-ui,sans-serif" font-size="13" font-weight="700" fill="#1F2937">Unit</text>
  <text x="-10" y="3102" text-anchor="end" font-family="system-ui,sans-serif" font-size="11.5" fill="#4B5563">ParseEther</text>
  <rect x="0" y="3080" width="116.8" height="16" fill="url(#goGrad2)" rx="3"/>
  <text x="122.8" y="3092" font-family="system-ui,sans-serif" font-size="10" fill="#0E7490">65.0 ns</text>
  <rect x="0" y="3100" width="161.0" height="16" fill="url(#tsGrad2)" rx="3"/>
  <text x="167.0" y="3112" font-family="system-ui,sans-serif" font-size="10" fill="#1E40AF">315.4 ns</text>
  <text x="-10" y="3154" text-anchor="end" font-family="system-ui,sans-serif" font-size="11.5" fill="#4B5563">ParseGwei</text>
  <rect x="0" y="3132" width="117.6" height="16" fill="url(#goGrad2)" rx="3"/>
  <text x="123.6" y="3144" font-family="system-ui,sans-serif" font-size="10" fill="#0E7490">66.7 ns</text>
  <rect x="0" y="3152" width="148.4" height="16" fill="url(#tsGrad2)" rx="3"/>
  <text x="154.4" y="3164" font-family="system-ui,sans-serif" font-size="10" fill="#1E40AF">200.7 ns</text>
  <text x="-10" y="3206" text-anchor="end" font-family="system-ui,sans-serif" font-size="11.5" fill="#4B5563">ParseUnits(6)</text>
  <rect x="0" y="3184" width="125.7" height="16" fill="url(#goGrad2)" rx="3"/>
  <text x="131.7" y="3196" font-family="system-ui,sans-serif" font-size="10" fill="#0E7490">89.3 ns</text>
  <rect x="0" y="3204" width="149.8" height="16" fill="url(#tsGrad2)" rx="3"/>
  <text x="155.8" y="3216" font-family="system-ui,sans-serif" font-size="10" fill="#1E40AF">211.1 ns</text>
  <text x="-10" y="3258" text-anchor="end" font-family="system-ui,sans-serif" font-size="11.5" fill="#4B5563">FormatUnits</text>
  <rect x="0" y="3236" width="127.9" height="16" fill="url(#goGrad2)" rx="3"/>
  <text x="133.9" y="3248" font-family="system-ui,sans-serif" font-size="10" fill="#0E7490">96.6 ns</text>
  <rect x="0" y="3256" width="138.5" height="16" fill="url(#tsGrad2)" rx="3"/>
  <text x="144.5" y="3268" font-family="system-ui,sans-serif" font-size="10" fill="#1E40AF">140.8 ns</text>
  <text x="-10" y="3310" text-anchor="end" font-family="system-ui,sans-serif" font-size="11.5" fill="#4B5563">FormatEther</text>
  <rect x="0" y="3288" width="133.1" height="16" fill="url(#goGrad2)" rx="3"/>
  <text x="139.1" y="3300" font-family="system-ui,sans-serif" font-size="10" fill="#0E7490">116.2 ns</text>
  <rect x="0" y="3308" width="139.2" height="16" fill="url(#tsGrad2)" rx="3"/>
  <text x="145.2" y="3320" font-family="system-ui,sans-serif" font-size="10" fill="#1E40AF">144.6 ns</text>
  <text x="-10" y="3362" text-anchor="end" font-family="system-ui,sans-serif" font-size="11.5" fill="#4B5563">ParseEther Large</text>
  <rect x="0" y="3340" width="136.3" height="16" fill="url(#goGrad2)" rx="3"/>
  <text x="142.3" y="3352" font-family="system-ui,sans-serif" font-size="10" fill="#0E7490">130.2 ns</text>
  <rect x="0" y="3360" width="152.8" height="16" fill="url(#tsGrad2)" rx="3"/>
  <text x="158.8" y="3372" font-family="system-ui,sans-serif" font-size="10" fill="#1E40AF">235.2 ns</text>
</g>
<g transform="translate(340,3499)">
  <rect width="14" height="14" fill="#00ADD8" rx="3"/>
  <text x="18" y="11" font-family="system-ui,sans-serif" font-size="11" fill="#4B5563">Go (viem-go)</text>
  <rect x="120" width="14" height="14" fill="#3178C6" rx="3"/>
  <text x="138" y="11" font-family="system-ui,sans-serif" font-size="11" fill="#4B5563">TypeScript (viem)</text>
</g>
</svg>