<svg xmlns="http://www.w3.org/2000/svg" width="880" height="897" viewBox="0 0 880 897">
<defs>
  <linearGradient id="goGrad" x1="0" y1="0" x2="1" y2="0">
    <stop offset="0%" stop-color="#00ADD8" stop-opacity="0.95"/>
    <stop offset="100%" stop-color="#0891B2" stop-opacity="0.85"/>
  </linearGradient>
  <linearGradient id="tsGrad" x1="0" y1="0" x2="1" y2="0">
    <stop offset="0%" stop-color="#3178C6" stop-opacity="0.95"/>
    <stop offset="100%" stop-color="#1D4ED8" stop-opacity="0.85"/>
  </linearGradient>
</defs>
<rect width="880" height="897" fill="#FAFAFA" rx="12"/>
<rect x=".5" y=".5" width="879" height="896" fill="none" stroke="#E5E7EB" rx="12"/>
<text x="440" y="34" text-anchor="middle" font-family="system-ui,sans-serif" font-size="18" font-weight="700" fill="#111827">viem-go vs viem (TypeScript) &#8212; Speedup</text>
<text x="440" y="54" text-anchor="middle" font-family="system-ui,sans-serif" font-size="12" fill="#6B7280">Go is 3.6x faster overall across 22 benchmarks &#183; log scale</text>
<g transform="translate(200,80)">
  <line x1="0.0" y1="0" x2="0.0" y2="762" stroke="#E5E7EB"/>
  <text x="0.0" y="778" text-anchor="middle" font-family="system-ui,sans-serif" font-size="10" fill="#9CA3AF">1x</text>
  <line x1="59.2" y1="0" x2="59.2" y2="762" stroke="#E5E7EB"/>
  <text x="59.2" y="778" text-anchor="middle" font-family="system-ui,sans-serif" font-size="10" fill="#9CA3AF">2x</text>
  <line x1="137.5" y1="0" x2="137.5" y2="762" stroke="#E5E7EB"/>
  <text x="137.5" y="778" text-anchor="middle" font-family="system-ui,sans-serif" font-size="10" fill="#9CA3AF">5x</text>
  <line x1="196.7" y1="0" x2="196.7" y2="762" stroke="#E5E7EB"/>
  <text x="196.7" y="778" text-anchor="middle" font-family="system-ui,sans-serif" font-size="10" fill="#9CA3AF">10x</text>
  <line x1="255.9" y1="0" x2="255.9" y2="762" stroke="#E5E7EB"/>
  <text x="255.9" y="778" text-anchor="middle" font-family="system-ui,sans-serif" font-size="10" fill="#9CA3AF">20x</text>
  <line x1="334.1" y1="0" x2="334.1" y2="762" stroke="#E5E7EB"/>
  <text x="334.1" y="778" text-anchor="middle" font-family="system-ui,sans-serif" font-size="10" fill="#9CA3AF">50x</text>
  <line x1="393.3" y1="0" x2="393.3" y2="762" stroke="#E5E7EB"/>
  <text x="393.3" y="778" text-anchor="middle" font-family="system-ui,sans-serif" font-size="10" fill="#9CA3AF">100x</text>
  <line x1="452.5" y1="0" x2="452.5" y2="762" stroke="#E5E7EB"/>
  <text x="452.5" y="778" text-anchor="middle" font-family="system-ui,sans-serif" font-size="10" fill="#9CA3AF">200x</text>
  <line x1="530.8" y1="0" x2="530.8" y2="762" stroke="#E5E7EB"/>
  <text x="530.8" y="778" text-anchor="middle" font-family="system-ui,sans-serif" font-size="10" fill="#9CA3AF">500x</text>
  <line x1="0" y1="0" x2="0" y2="762" stroke="#D1D5DB" stroke-width="1.5"/>
  <text x="-10" y="16" text-anchor="end" font-family="system-ui,sans-serif" font-size="13" font-weight="700" fill="#1F2937">Call</text>
  <text x="-10" y="30" text-anchor="end" font-family="system-ui,sans-serif" font-size="10" fill="#9CA3AF">avg 80.9x</text>
  <text x="-10" y="57" text-anchor="end" font-family="system-ui,sans-serif" font-size="11.5" fill="#4B5563">With Account</text>
  <rect x="0" y="40" width="25.9" height="26" fill="url(#goGrad)" rx="4"/>
  <text x="33.9" y="57" font-family="system-ui,sans-serif" font-size="11" font-weight="600" fill="#0E7490">1.4x</text>
  <text x="-10" y="88" text-anchor="end" font-family="system-ui,sans-serif" font-size="11.5" fill="#4B5563">Symbol</text>
  <rect x="0" y="71" width="385.0" height="26" fill="url(#goGrad)" rx="4"/>
  <text x="393.0" y="88" font-family="system-ui,sans-serif" font-size="11" font-weight="600" fill="#0E7490">91x</text>
  <text x="-10" y="119" text-anchor="end" font-family="system-ui,sans-serif" font-size="11.5" fill="#4B5563">Decimals</text>
  <rect x="0" y="102" width="388.4" height="26" fill="url(#goGrad)" rx="4"/>
  <text x="396.4" y="119" font-family="system-ui,sans-serif" font-size="11" font-weight="600" fill="#0E7490">94x</text>
  <text x="-10" y="150" text-anchor="end" font-family="system-ui,sans-serif" font-size="11.5" fill="#4B5563">BalanceOf Multi</text>
  <rect x="0" y="133" width="391.8" height="26" fill="url(#goGrad)" rx="4"/>
  <text x="399.8" y="150" font-family="system-ui,sans-serif" font-size="11" font-weight="600" fill="#0E7490">98x</text>
  <text x="-10" y="181" text-anchor="end" font-family="system-ui,sans-serif" font-size="11.5" fill="#4B5563">Basic</text>
  <rect x="0" y="164" width="392.5" height="26" fill="url(#goGrad)" rx="4"/>
  <text x="400.5" y="181" font-family="system-ui,sans-serif" font-size="11" font-weight="600" fill="#0E7490">99x</text>
  <text x="-10" y="212" text-anchor="end" font-family="system-ui,sans-serif" font-size="11.5" fill="#4B5563">With Data</text>
  <rect x="0" y="195" width="396.4" height="26" fill="url(#goGrad)" rx="4"/>
  <text x="404.4" y="212" font-family="system-ui,sans-serif" font-size="11" font-weight="600" fill="#0E7490">104x</text>
  <text x="-10" y="242" text-anchor="end" font-family="system-ui,sans-serif" font-size="13" font-weight="700" fill="#1F2937">Multicall</text>
  <text x="-10" y="256" text-anchor="end" font-family="system-ui,sans-serif" font-size="10" fill="#9CA3AF">avg 3.2x</text>
  <text x="-10" y="283" text-anchor="end" font-family="system-ui,sans-serif" font-size="11.5" fill="#4B5563">Deployless</text>
  <rect x="0" y="266" width="39.1" height="26" fill="url(#goGrad)" rx="4"/>
  <text x="47.1" y="283" font-family="system-ui,sans-serif" font-size="11" font-weight="600" fill="#0E7490">1.6x</text>
  <text x="-10" y="314" text-anchor="end" font-family="system-ui,sans-serif" font-size="11.5" fill="#4B5563">500 Calls</text>
  <rect x="0" y="297" width="45.2" height="26" fill="url(#goGrad)" rx="4"/>
  <text x="53.2" y="314" font-family="system-ui,sans-serif" font-size="11" font-weight="600" fill="#0E7490">1.7x</text>
  <text x="-10" y="345" text-anchor="end" font-family="system-ui,sans-serif" font-size="11.5" fill="#4B5563">10K Single RPC</text>
  <rect x="0" y="328" width="46.5" height="26" fill="url(#goGrad)" rx="4"/>
  <text x="54.5" y="345" font-family="system-ui,sans-serif" font-size="11" font-weight="600" fill="#0E7490">1.7x</text>
  <text x="-10" y="376" text-anchor="end" font-family="system-ui,sans-serif" font-size="11.5" fill="#4B5563">Token Metadata</text>
  <rect x="0" y="359" width="49.3" height="26" fill="url(#goGrad)" rx="4"/>
  <text x="57.3" y="376" font-family="system-ui,sans-serif" font-size="11" font-weight="600" fill="#0E7490">1.8x</text>
  <text x="-10" y="407" text-anchor="end" font-family="system-ui,sans-serif" font-size="11.5" fill="#4B5563">10 Calls</text>
  <rect x="0" y="390" width="49.5" height="26" fill="url(#goGrad)" rx="4"/>
  <text x="57.5" y="407" font-family="system-ui,sans-serif" font-size="11" font-weight="600" fill="#0E7490">1.8x</text>
  <text x="-10" y="438" text-anchor="end" font-family="system-ui,sans-serif" font-size="11.5" fill="#4B5563">50 Calls</text>
  <rect x="0" y="421" width="51.7" height="26" fill="url(#goGrad)" rx="4"/>
  <text x="59.7" y="438" font-family="system-ui,sans-serif" font-size="11" font-weight="600" fill="#0E7490">1.8x</text>
  <text x="-10" y="469" text-anchor="end" font-family="system-ui,sans-serif" font-size="11.5" fill="#4B5563">100 Calls</text>
  <rect x="0" y="452" width="52.1" height="26" fill="url(#goGrad)" rx="4"/>
  <text x="60.1" y="469" font-family="system-ui,sans-serif" font-size="11" font-weight="600" fill="#0E7490">1.8x</text>
  <text x="-10" y="500" text-anchor="end" font-family="system-ui,sans-serif" font-size="11.5" fill="#4B5563">100 Mixed</text>
  <rect x="0" y="483" width="52.5" height="26" fill="url(#goGrad)" rx="4"/>
  <text x="60.5" y="500" font-family="system-ui,sans-serif" font-size="11" font-weight="600" fill="#0E7490">1.8x</text>
  <text x="-10" y="531" text-anchor="end" font-family="system-ui,sans-serif" font-size="11.5" fill="#4B5563">30 Calls</text>
  <rect x="0" y="514" width="54.3" height="26" fill="url(#goGrad)" rx="4"/>
  <text x="62.3" y="531" font-family="system-ui,sans-serif" font-size="11" font-weight="600" fill="#0E7490">1.9x</text>
  <text x="-10" y="562" text-anchor="end" font-family="system-ui,sans-serif" font-size="11.5" fill="#4B5563">200 Calls</text>
  <rect x="0" y="545" width="59.7" height="26" fill="url(#goGrad)" rx="4"/>
  <text x="67.7" y="562" font-family="system-ui,sans-serif" font-size="11" font-weight="600" fill="#0E7490">2.0x</text>
  <text x="-10" y="593" text-anchor="end" font-family="system-ui,sans-serif" font-size="11.5" fill="#4B5563">Multi-Contract</text>
  <rect x="0" y="576" width="62.9" height="26" fill="url(#goGrad)" rx="4"/>
  <text x="70.9" y="593" font-family="system-ui,sans-serif" font-size="11" font-weight="600" fill="#0E7490">2.1x</text>
  <text x="-10" y="624" text-anchor="end" font-family="system-ui,sans-serif" font-size="11.5" fill="#4B5563">Basic</text>
  <rect x="0" y="607" width="69.8" height="26" fill="url(#goGrad)" rx="4"/>
  <text x="77.8" y="624" font-family="system-ui,sans-serif" font-size="11" font-weight="600" fill="#0E7490">2.3x</text>
  <text x="-10" y="655" text-anchor="end" font-family="system-ui,sans-serif" font-size="11.5" fill="#4B5563">1K Calls</text>
  <rect x="0" y="638" width="105.0" height="26" fill="url(#goGrad)" rx="4"/>
  <text x="113.0" y="655" font-family="system-ui,sans-serif" font-size="11" font-weight="600" fill="#0E7490">3.4x</text>
  <text x="-10" y="686" text-anchor="end" font-family="system-ui,sans-serif" font-size="11.5" fill="#4B5563">With Args</text>
  <rect x="0" y="669" width="147.0" height="26" fill="url(#goGrad)" rx="4"/>
  <text x="155.0" y="686" font-family="system-ui,sans-serif" font-size="11" font-weight="600" fill="#0E7490">5.6x</text>
  <text x="-10" y="717" text-anchor="end" font-family="system-ui,sans-serif" font-size="11.5" fill="#4B5563">10K Aggressive</text>
  <rect x="0" y="700" width="151.2" height="26" fill="url(#goGrad)" rx="4"/>
  <text x="159.2" y="717" font-family="system-ui,sans-serif" font-size="11" font-weight="600" fill="#0E7490">5.9x</text>
  <text x="-10" y="748" text-anchor="end" font-family="system-ui,sans-serif" font-size="11.5" fill="#4B5563">10K Chunked</text>
  <rect x="0" y="731" width="158.6" height="26" fill="url(#goGrad)" rx="4"/>
  <text x="166.6" y="748" font-family="system-ui,sans-serif" font-size="11" font-weight="600" fill="#0E7490">6.4x</text>
</g>
<g transform="translate(340,869)">
  <rect width="14" height="14" fill="#00ADD8" rx="3"/>
  <text x="18" y="11" font-family="system-ui,sans-serif" font-size="11" fill="#4B5563">Go faster</text>
  <rect x="100" width="14" height="14" fill="#3178C6" rx="3"/>
  <text x="118" y="11" font-family="system-ui,sans-serif" font-size="11" fill="#4B5563">TS faster</text>
</g>
</svg>