<svg xmlns="http://www.w3.org/2000/svg" width="880" height="2324" viewBox="0 0 880 2324">
<defs>
  <linearGradient id="goGrad" x1="0" y1="0" x2="1" y2="0">
    <stop offset="0%" stop-color="#00ADD8" stop-opacity="0.95"/>
    <stop offset="100%" stop-color="#0891B2" stop-opacity="0.85"/>
  </linearGradient>
  <linearGradient id="tsGrad" x1="0" y1="0" x2="1" y2="0">
    <stop offset="0%" stop-color="#3178C6" stop-opacity="0.95"/>
    <stop offset="100%" stop-color="#1D4ED8" stop-opacity="0.85"/>
  </linearGradient>
</defs>
<rect width="880" height="2324" fill="#FAFAFA" rx="12"/>
<rect x=".5" y=".5" width="879" height="2323" fill="none" stroke="#E5E7EB" rx="12"/>
<text x="440" y="34" text-anchor="middle" font-family="system-ui,sans-serif" font-size="18" font-weight="700" fill="#111827">viem-go vs viem (TypeScript) &#8212; Speedup</text>
<text x="440" y="54" text-anchor="middle" font-family="system-ui,sans-serif" font-size="12" fill="#6B7280">Go is 7.1x faster overall (geometric mean, 59 benchmarks) &#183; log scale</text>
<g transform="translate(200,80)">
  <line x1="0.0" y1="0" x2="0.0" y2="2189" stroke="#E5E7EB"/>
  <text x="0.0" y="2205" text-anchor="middle" font-family="system-ui,sans-serif" font-size="10" fill="#9CA3AF">1x</text>
  <line x1="59.2" y1="0" x2="59.2" y2="2189" stroke="#E5E7EB"/>
  <text x="59.2" y="2205" text-anchor="middle" font-family="system-ui,sans-serif" font-size="10" fill="#9CA3AF">2x</text>
  <line x1="137.5" y1="0" x2="137.5" y2="2189" stroke="#E5E7EB"/>
  <text x="137.5" y="2205" text-anchor="middle" font-family="system-ui,sans-serif" font-size="10" fill="#9CA3AF">5x</text>
  <line x1="196.7" y1="0" x2="196.7" y2="2189" stroke="#E5E7EB"/>
  <text x="196.7" y="2205" text-anchor="middle" font-family="system-ui,sans-serif" font-size="10" fill="#9CA3AF">10x</text>
  <line x1="255.9" y1="0" x2="255.9" y2="2189" stroke="#E5E7EB"/>
  <text x="255.9" y="2205" text-anchor="middle" font-family="system-ui,sans-serif" font-size="10" fill="#9CA3AF">20x</text>
  <line x1="334.1" y1="0" x2="334.1" y2="2189" stroke="#E5E7EB"/>
  <text x="334.1" y="2205" text-anchor="middle" font-family="system-ui,sans-serif" font-size="10" fill="#9CA3AF">50x</text>
  <line x1="393.3" y1="0" x2="393.3" y2="2189" stroke="#E5E7EB"/>
  <text x="393.3" y="2205" text-anchor="middle" font-family="system-ui,sans-serif" font-size="10" fill="#9CA3AF">100x</text>
  <line x1="452.5" y1="0" x2="452.5" y2="2189" stroke="#E5E7EB"/>
  <text x="452.5" y="2205" text-anchor="middle" font-family="system-ui,sans-serif" font-size="10" fill="#9CA3AF">200x</text>
  <line x1="530.8" y1="0" x2="530.8" y2="2189" stroke="#E5E7EB"/>
  <text x="530.8" y="2205" text-anchor="middle" font-family="system-ui,sans-serif" font-size="10" fill="#9CA3AF">500x</text>
  <line x1="0" y1="0" x2="0" y2="2189" stroke="#D1D5DB" stroke-width="1.5"/>
  <text x="-10" y="16" text-anchor="end" font-family="system-ui,sans-serif" font-size="13" font-weight="700" fill="#1F2937">Abi</text>
  <text x="-10" y="30" text-anchor="end" font-family="system-ui,sans-serif" font-size="10" fill="#9CA3AF">avg 7.3x</text>
  <text x="-10" y="57" text-anchor="end" font-family="system-ui,sans-serif" font-size="11.5" fill="#4B5563">EncodePacked</text>
  <rect x="0" y="40" width="21.2" height="26" fill="url(#goGrad)" rx="4"/>
  <text x="29.2" y="57" font-family="system-ui,sans-serif" font-size="11" font-weight="600" fill="#0E7490">1.3x</text>
  <text x="-10" y="88" text-anchor="end" font-family="system-ui,sans-serif" font-size="11.5" fill="#4B5563">EncodePacked Multi</text>
  <rect x="0" y="71" width="76.4" height="26" fill="url(#goGrad)" rx="4"/>
  <text x="84.4" y="88" font-family="system-ui,sans-serif" font-size="11" font-weight="600" fill="#0E7490">2.4x</text>
  <text x="-10" y="119" text-anchor="end" font-family="system-ui,sans-serif" font-size="11.5" fill="#4B5563">Decode Result</text>
  <rect x="0" y="102" width="183.1" height="26" fill="url(#goGrad)" rx="4"/>
  <text x="191.1" y="119" font-family="system-ui,sans-serif" font-size="11" font-weight="600" fill="#0E7490">8.5x</text>
  <text x="-10" y="150" text-anchor="end" font-family="system-ui,sans-serif" font-size="11.5" fill="#4B5563">Encode 3-Arg</text>
  <rect x="0" y="133" width="213.2" height="26" fill="url(#goGrad)" rx="4"/>
  <text x="221.2" y="150" font-family="system-ui,sans-serif" font-size="11" font-weight="600" fill="#0E7490">12x</text>
  <text x="-10" y="181" text-anchor="end" font-family="system-ui,sans-serif" font-size="11.5" fill="#4B5563">Encode Complex</text>
  <rect x="0" y="164" width="226.1" height="26" fill="url(#goGrad)" rx="4"/>
  <text x="234.1" y="181" font-family="system-ui,sans-serif" font-size="11" font-weight="600" fill="#0E7490">14x</text>
  <text x="-10" y="212" text-anchor="end" font-family="system-ui,sans-serif" font-size="11.5" fill="#4B5563">Encode Simple</text>
  <rect x="0" y="195" width="295.5" height="26" fill="url(#goGrad)" rx="4"/>
  <text x="303.5" y="212" font-family="system-ui,sans-serif" font-size="11" font-weight="600" fill="#0E7490">32x</text>
  <text x="-10" y="242" text-anchor="end" font-family="system-ui,sans-serif" font-size="13" font-weight="700" fill="#1F2937">Address</text>
  <text x="-10" y="256" text-anchor="end" font-family="system-ui,sans-serif" font-size="10" fill="#9CA3AF">avg 6.3x</text>
  <text x="-10" y="283" text-anchor="end" font-family="system-ui,sans-serif" font-size="11.5" fill="#4B5563">IsAddress Lower</text>
  <rect x="0" y="266" width="120.1" height="26" fill="url(#goGrad)" rx="4"/>
  <text x="128.1" y="283" font-family="system-ui,sans-serif" font-size="11" font-weight="600" fill="#0E7490">4.1x</text>
  <text x="-10" y="314" text-anchor="end" font-family="system-ui,sans-serif" font-size="11.5" fill="#4B5563">Checksum</text>
  <rect x="0" y="297" width="140.8" height="26" fill="url(#goGrad)" rx="4"/>
  <text x="148.8" y="314" font-family="system-ui,sans-serif" font-size="11" font-weight="600" fill="#0E7490">5.2x</text>
  <text x="-10" y="345" text-anchor="end" font-family="system-ui,sans-serif" font-size="11.5" fill="#4B5563">IsAddress</text>
  <rect x="0" y="328" width="154.2" height="26" fill="url(#goGrad)" rx="4"/>
  <text x="162.2" y="345" font-family="system-ui,sans-serif" font-size="11" font-weight="600" fill="#0E7490">6.1x</text>
  <text x="-10" y="376" text-anchor="end" font-family="system-ui,sans-serif" font-size="11.5" fill="#4B5563">CREATE</text>
  <rect x="0" y="359" width="155.0" height="26" fill="url(#goGrad)" rx="4"/>
  <text x="163.0" y="376" font-family="system-ui,sans-serif" font-size="11" font-weight="600" fill="#0E7490">6.1x</text>
  <text x="-10" y="407" text-anchor="end" font-family="system-ui,sans-serif" font-size="11.5" fill="#4B5563">CREATE2</text>
  <rect x="0" y="390" width="214.1" height="26" fill="url(#goGrad)" rx="4"/>
  <text x="222.1" y="407" font-family="system-ui,sans-serif" font-size="11" font-weight="600" fill="#0E7490">12x</text>
  <text x="-10" y="437" text-anchor="end" font-family="system-ui,sans-serif" font-size="13" font-weight="700" fill="#1F2937">Call</text>
  <text x="-10" y="451" text-anchor="end" font-family="system-ui,sans-serif" font-size="10" fill="#9CA3AF">avg 45.9x</text>
  <text x="-10" y="478" text-anchor="end" font-family="system-ui,sans-serif" font-size="11.5" fill="#4B5563">With Account</text>
  <rect x="0" y="461" width="26.5" height="26" fill="url(#goGrad)" rx="4"/>
  <text x="34.5" y="478" font-family="system-ui,sans-serif" font-size="11" font-weight="600" fill="#0E7490">1.4x</text>
  <text x="-10" y="509" text-anchor="end" font-family="system-ui,sans-serif" font-size="11.5" fill="#4B5563">Basic</text>
  <rect x="0" y="492" width="360.1" height="26" fill="url(#goGrad)" rx="4"/>
  <text x="368.1" y="509" font-family="system-ui,sans-serif" font-size="11" font-weight="600" fill="#0E7490">68x</text>
  <text x="-10" y="540" text-anchor="end" font-family="system-ui,sans-serif" font-size="11.5" fill="#4B5563">BalanceOf Multi</text>
  <rect x="0" y="523" width="392.1" height="26" fill="url(#goGrad)" rx="4"/>
  <text x="400.1" y="540" font-family="system-ui,sans-serif" font-size="11" font-weight="600" fill="#0E7490">99x</text>
  <text x="-10" y="571" text-anchor="end" font-family="system-ui,sans-serif" font-size="11.5" fill="#4B5563">With Data</text>
  <rect x="0" y="554" width="393.3" height="26" fill="url(#goGrad)" rx="4"/>
  <text x="401.3" y="571" font-family="system-ui,sans-serif" font-size="11" font-weight="600" fill="#0E7490">100x</text>
  <text x="-10" y="602" text-anchor="end" font-family="system-ui,sans-serif" font-size="11.5" fill="#4B5563">Symbol</text>
  <rect x="0" y="585" width="393.4" height="26" fill="url(#goGrad)" rx="4"/>
  <text x="401.4" y="602" font-family="system-ui,sans-serif" font-size="11" font-weight="600" fill="#0E7490">100x</text>
  <text x="-10" y="633" text-anchor="end" font-family="system-ui,sans-serif" font-size="11.5" fill="#4B5563">Decimals</text>
  <rect x="0" y="616" width="395.2" height="26" fill="url(#goGrad)" rx="4"/>
  <text x="403.2" y="633" font-family="system-ui,sans-serif" font-size="11" font-weight="600" fill="#0E7490">102x</text>
  <text x="-10" y="663" text-anchor="end" font-family="system-ui,sans-serif" font-size="13" font-weight="700" fill="#1F2937">Ens</text>
  <text x="-10" y="677" text-anchor="end" font-family="system-ui,sans-serif" font-size="10" fill="#9CA3AF">avg 7.1x</text>
  <text x="-10" y="704" text-anchor="end" font-family="system-ui,sans-serif" font-size="11.5" fill="#4B5563">Normalize</text>
  <rect x="0" y="687" width="87.0" height="26" fill="url(#goGrad)" rx="4"/>
  <text x="95.0" y="704" font-family="system-ui,sans-serif" font-size="11" font-weight="600" fill="#0E7490">2.8x</text>
  <text x="-10" y="735" text-anchor="end" font-family="system-ui,sans-serif" font-size="11.5" fill="#4B5563">Normalize Long</text>
  <rect x="0" y="718" width="90.7" height="26" fill="url(#goGrad)" rx="4"/>
  <text x="98.7" y="735" font-family="system-ui,sans-serif" font-size="11" font-weight="600" fill="#0E7490">2.9x</text>
  <text x="-10" y="766" text-anchor="end" font-family="system-ui,sans-serif" font-size="11.5" fill="#4B5563">Labelhash</text>
  <rect x="0" y="749" width="215.3" height="26" fill="url(#goGrad)" rx="4"/>
  <text x="223.3" y="766" font-family="system-ui,sans-serif" font-size="11" font-weight="600" fill="#0E7490">12x</text>
  <text x="-10" y="797" text-anchor="end" font-family="system-ui,sans-serif" font-size="11.5" fill="#4B5563">Namehash</text>
  <rect x="0" y="780" width="215.7" height="26" fill="url(#goGrad)" rx="4"/>
  <text x="223.7" y="797" font-family="system-ui,sans-serif" font-size="11" font-weight="600" fill="#0E7490">12x</text>
  <text x="-10" y="828" text-anchor="end" font-family="system-ui,sans-serif" font-size="11.5" fill="#4B5563">Namehash Deep</text>
  <rect x="0" y="811" width="227.7" height="26" fill="url(#goGrad)" rx="4"/>
  <text x="235.7" y="828" font-family="system-ui,sans-serif" font-size="11" font-weight="600" fill="#0E7490">14x</text>
  <text x="-10" y="858" text-anchor="end" font-family="system-ui,sans-serif" font-size="13" font-weight="700" fill="#1F2937">Event</text>
  <text x="-10" y="872" text-anchor="end" font-family="system-ui,sans-serif" font-size="10" fill="#9CA3AF">avg 21.8x</text>
  <text x="-10" y="899" text-anchor="end" font-family="system-ui,sans-serif" font-size="11.5" fill="#4B5563">Decode Transfer</text>
  <rect x="0" y="882" width="236.7" height="26" fill="url(#goGrad)" rx="4"/>
  <text x="244.7" y="899" font-family="system-ui,sans-serif" font-size="11" font-weight="600" fill="#0E7490">16x</text>
  <text x="-10" y="930" text-anchor="end" font-family="system-ui,sans-serif" font-size="11.5" fill="#4B5563">Decode Batch 100</text>
  <rect x="0" y="913" width="274.9" height="26" fill="url(#goGrad)" rx="4"/>
  <text x="282.9" y="930" font-family="system-ui,sans-serif" font-size="11" font-weight="600" fill="#0E7490">25x</text>
  <text x="-10" y="961" text-anchor="end" font-family="system-ui,sans-serif" font-size="11.5" fill="#4B5563">Decode Batch 10</text>
  <rect x="0" y="944" width="278.4" height="26" fill="url(#goGrad)" rx="4"/>
  <text x="286.4" y="961" font-family="system-ui,sans-serif" font-size="11" font-weight="600" fill="#0E7490">26x</text>
  <text x="-10" y="991" text-anchor="end" font-family="system-ui,sans-serif" font-size="13" font-weight="700" fill="#1F2937">Hash</text>
  <text x="-10" y="1005" text-anchor="end" font-family="system-ui,sans-serif" font-size="10" fill="#9CA3AF">avg 10.6x</text>
  <text x="-10" y="1032" text-anchor="end" font-family="system-ui,sans-serif" font-size="11.5" fill="#4B5563">Event Selector</text>
  <rect x="0" y="1015" width="84.9" height="26" fill="url(#goGrad)" rx="4"/>
  <text x="92.9" y="1032" font-family="system-ui,sans-serif" font-size="11" font-weight="600" fill="#0E7490">2.7x</text>
  <text x="-10" y="1063" text-anchor="end" font-family="system-ui,sans-serif" font-size="11.5" fill="#4B5563">Fn Selector</text>
  <rect x="0" y="1046" width="101.8" height="26" fill="url(#goGrad)" rx="4"/>
  <text x="109.8" y="1063" font-family="system-ui,sans-serif" font-size="11" font-weight="600" fill="#0E7490">3.3x</text>
  <text x="-10" y="1094" text-anchor="end" font-family="system-ui,sans-serif" font-size="11.5" fill="#4B5563">SHA-256 Short</text>
  <rect x="0" y="1077" width="186.4" height="26" fill="url(#goGrad)" rx="4"/>
  <text x="194.4" y="1094" font-family="system-ui,sans-serif" font-size="11" font-weight="600" fill="#0E7490">8.9x</text>
  <text x="-10" y="1125" text-anchor="end" font-family="system-ui,sans-serif" font-size="11.5" fill="#4B5563">Keccak256 Hex</text>
  <rect x="0" y="1108" width="208.2" height="26" fill="url(#goGrad)" rx="4"/>
  <text x="216.2" y="1125" font-family="system-ui,sans-serif" font-size="11" font-weight="600" fill="#0E7490">11x</text>
  <text x="-10" y="1156" text-anchor="end" font-family="system-ui,sans-serif" font-size="11.5" fill="#4B5563">Keccak256 Long</text>
  <rect x="0" y="1139" width="243.6" height="26" fill="url(#goGrad)" rx="4"/>
  <text x="251.6" y="1156" font-family="system-ui,sans-serif" font-size="11" font-weight="600" fill="#0E7490">17x</text>
  <text x="-10" y="1187" text-anchor="end" font-family="system-ui,sans-serif" font-size="11.5" fill="#4B5563">SHA-256 Long</text>
  <rect x="0" y="1170" width="257.4" height="26" fill="url(#goGrad)" rx="4"/>
  <text x="265.4" y="1187" font-family="system-ui,sans-serif" font-size="11" font-weight="600" fill="#0E7490">20x</text>
  <text x="-10" y="1218" text-anchor="end" font-family="system-ui,sans-serif" font-size="11.5" fill="#4B5563">Keccak256 Short</text>
  <rect x="0" y="1201" width="327.8" height="26" fill="url(#goGrad)" rx="4"/>
  <text x="335.8" y="1218" font-family="system-ui,sans-serif" font-size="11" font-weight="600" fill="#0E7490">46x</text>
  <text x="-10" y="1248" text-anchor="end" font-family="system-ui,sans-serif" font-size="13" font-weight="700" fill="#1F2937">Multicall</text>
  <text x="-10" y="1262" text-anchor="end" font-family="system-ui,sans-serif" font-size="10" fill="#9CA3AF">avg 2.9x</text>
  <text x="-10" y="1289" text-anchor="end" font-family="system-ui,sans-serif" font-size="11.5" fill="#4B5563">Deployless</text>
  <rect x="0" y="1272" width="39.3" height="26" fill="url(#goGrad)" rx="4"/>
  <text x="47.3" y="1289" font-family="system-ui,sans-serif" font-size="11" font-weight="600" fill="#0E7490">1.6x</text>
  <text x="-10" y="1320" text-anchor="end" font-family="system-ui,sans-serif" font-size="11.5" fill="#4B5563">Multi-Contract</text>
  <rect x="0" y="1303" width="45.1" height="26" fill="url(#goGrad)" rx="4"/>
  <text x="53.1" y="1320" font-family="system-ui,sans-serif" font-size="11" font-weight="600" fill="#0E7490">1.7x</text>
  <text x="-10" y="1351" text-anchor="end" font-family="system-ui,sans-serif" font-size="11.5" fill="#4B5563">Token Metadata</text>
  <rect x="0" y="1334" width="52.0" height="26" fill="url(#goGrad)" rx="4"/>
  <text x="60.0" y="1351" font-family="system-ui,sans-serif" font-size="11" font-weight="600" fill="#0E7490">1.8x</text>
  <text x="-10" y="1382" text-anchor="end" font-family="system-ui,sans-serif" font-size="11.5" fill="#4B5563">With Args</text>
  <rect x="0" y="1365" width="55.9" height="26" fill="url(#goGrad)" rx="4"/>
  <text x="63.9" y="1382" font-family="system-ui,sans-serif" font-size="11" font-weight="600" fill="#0E7490">1.9x</text>
  <text x="-10" y="1413" text-anchor="end" font-family="system-ui,sans-serif" font-size="11.5" fill="#4B5563">10 Calls</text>
  <rect x="0" y="1396" width="60.7" height="26" fill="url(#goGrad)" rx="4"/>
  <text x="68.7" y="1413" font-family="system-ui,sans-serif" font-size="11" font-weight="600" fill="#0E7490">2.0x</text>
  <text x="-10" y="1444" text-anchor="end" font-family="system-ui,sans-serif" font-size="11.5" fill="#4B5563">30 Calls</text>
  <rect x="0" y="1427" width="75.6" height="26" fill="url(#goGrad)" rx="4"/>
  <text x="83.6" y="1444" font-family="system-ui,sans-serif" font-size="11" font-weight="600" fill="#0E7490">2.4x</text>
  <text x="-10" y="1475" text-anchor="end" font-family="system-ui,sans-serif" font-size="11.5" fill="#4B5563">10K Single RPC</text>
  <rect x="0" y="1458" width="76.3" height="26" fill="url(#goGrad)" rx="4"/>
  <text x="84.3" y="1475" font-family="system-ui,sans-serif" font-size="11" font-weight="600" fill="#0E7490">2.4x</text>
  <text x="-10" y="1506" text-anchor="end" font-family="system-ui,sans-serif" font-size="11.5" fill="#4B5563">100 Calls</text>
  <rect x="0" y="1489" width="77.3" height="26" fill="url(#goGrad)" rx="4"/>
  <text x="85.3" y="1506" font-family="system-ui,sans-serif" font-size="11" font-weight="600" fill="#0E7490">2.5x</text>
  <text x="-10" y="1537" text-anchor="end" font-family="system-ui,sans-serif" font-size="11.5" fill="#4B5563">Basic</text>
  <rect x="0" y="1520" width="78.7" height="26" fill="url(#goGrad)" rx="4"/>
  <text x="86.7" y="1537" font-family="system-ui,sans-serif" font-size="11" font-weight="600" fill="#0E7490">2.5x</text>
  <text x="-10" y="1568" text-anchor="end" font-family="system-ui,sans-serif" font-size="11.5" fill="#4B5563">100 Mixed</text>
  <rect x="0" y="1551" width="79.8" height="26" fill="url(#goGrad)" rx="4"/>
  <text x="87.8" y="1568" font-family="system-ui,sans-serif" font-size="11" font-weight="600" fill="#0E7490">2.5x</text>
  <text x="-10" y="1599" text-anchor="end" font-family="system-ui,sans-serif" font-size="11.5" fill="#4B5563">50 Calls</text>
  <rect x="0" y="1582" width="81.3" height="26" fill="url(#goGrad)" rx="4"/>
  <text x="89.3" y="1599" font-family="system-ui,sans-serif" font-size="11" font-weight="600" fill="#0E7490">2.6x</text>
  <text x="-10" y="1630" text-anchor="end" font-family="system-ui,sans-serif" font-size="11.5" fill="#4B5563">200 Calls</text>
  <rect x="0" y="1613" width="96.1" height="26" fill="url(#goGrad)" rx="4"/>
  <text x="104.1" y="1630" font-family="system-ui,sans-serif" font-size="11" font-weight="600" fill="#0E7490">3.1x</text>
  <text x="-10" y="1661" text-anchor="end" font-family="system-ui,sans-serif" font-size="11.5" fill="#4B5563">500 Calls</text>
  <rect x="0" y="1644" width="120.1" height="26" fill="url(#goGrad)" rx="4"/>
  <text x="128.1" y="1661" font-family="system-ui,sans-serif" font-size="11" font-weight="600" fill="#0E7490">4.1x</text>
  <text x="-10" y="1692" text-anchor="end" font-family="system-ui,sans-serif" font-size="11.5" fill="#4B5563">1K Calls</text>
  <rect x="0" y="1675" width="148.8" height="26" fill="url(#goGrad)" rx="4"/>
  <text x="156.8" y="1692" font-family="system-ui,sans-serif" font-size="11" font-weight="600" fill="#0E7490">5.7x</text>
  <text x="-10" y="1723" text-anchor="end" font-family="system-ui,sans-serif" font-size="11.5" fill="#4B5563">10K Aggressive</text>
  <rect x="0" y="1706" width="168.7" height="26" fill="url(#goGrad)" rx="4"/>
  <text x="176.7" y="1723" font-family="system-ui,sans-serif" font-size="11" font-weight="600" fill="#0E7490">7.2x</text>
  <text x="-10" y="1754" text-anchor="end" font-family="system-ui,sans-serif" font-size="11.5" fill="#4B5563">10K Chunked</text>
  <rect x="0" y="1737" width="186.7" height="26" fill="url(#goGrad)" rx="4"/>
  <text x="194.7" y="1754" font-family="system-ui,sans-serif" font-size="11" font-weight="600" fill="#0E7490">8.9x</text>
  <text x="-10" y="1784" text-anchor="end" font-family="system-ui,sans-serif" font-size="13" font-weight="700" fill="#1F2937">Signature</text>
  <text x="-10" y="1798" text-anchor="end" font-family="system-ui,sans-serif" font-size="10" fill="#9CA3AF">avg 18.7x</text>
  <text x="-10" y="1825" text-anchor="end" font-family="system-ui,sans-serif" font-size="11.5" fill="#4B5563">HashMessage Long</text>
  <rect x="0" y="1808" width="177.7" height="26" fill="url(#goGrad)" rx="4"/>
  <text x="185.7" y="1825" font-family="system-ui,sans-serif" font-size="11" font-weight="600" fill="#0E7490">8.0x</text>
  <text x="-10" y="1856" text-anchor="end" font-family="system-ui,sans-serif" font-size="11.5" fill="#4B5563">HashMessage</text>
  <rect x="0" y="1839" width="185.0" height="26" fill="url(#goGrad)" rx="4"/>
  <text x="193.0" y="1856" font-family="system-ui,sans-serif" font-size="11" font-weight="600" fill="#0E7490">8.7x</text>
  <text x="-10" y="1887" text-anchor="end" font-family="system-ui,sans-serif" font-size="11.5" fill="#4B5563">Parse Signature</text>
  <rect x="0" y="1870" width="189.5" height="26" fill="url(#goGrad)" rx="4"/>
  <text x="197.5" y="1887" font-family="system-ui,sans-serif" font-size="11" font-weight="600" fill="#0E7490">9.2x</text>
  <text x="-10" y="1918" text-anchor="end" font-family="system-ui,sans-serif" font-size="11.5" fill="#4B5563">Verify Message</text>
  <rect x="0" y="1901" width="348.6" height="26" fill="url(#goGrad)" rx="4"/>
  <text x="356.6" y="1918" font-family="system-ui,sans-serif" font-size="11" font-weight="600" fill="#0E7490">59x</text>
  <text x="-10" y="1949" text-anchor="end" font-family="system-ui,sans-serif" font-size="11.5" fill="#4B5563">Recover Address</text>
  <rect x="0" y="1932" width="350.6" height="26" fill="url(#goGrad)" rx="4"/>
  <text x="358.6" y="1949" font-family="system-ui,sans-serif" font-size="11" font-weight="600" fill="#0E7490">61x</text>
  <text x="-10" y="1979" text-anchor="end" font-family="system-ui,sans-serif" font-size="13" font-weight="700" fill="#1F2937">Unit</text>
  <text x="-10" y="1993" text-anchor="end" font-family="system-ui,sans-serif" font-size="10" fill="#9CA3AF">avg 2.2x</text>
  <text x="-10" y="2020" text-anchor="end" font-family="system-ui,sans-serif" font-size="11.5" fill="#4B5563">FormatEther</text>
  <rect x="0" y="2003" width="18.7" height="26" fill="url(#goGrad)" rx="4"/>
  <text x="26.7" y="2020" font-family="system-ui,sans-serif" font-size="11" font-weight="600" fill="#0E7490">1.2x</text>
  <text x="-10" y="2051" text-anchor="end" font-family="system-ui,sans-serif" font-size="11.5" fill="#4B5563">FormatUnits</text>
  <rect x="0" y="2034" width="32.2" height="26" fill="url(#goGrad)" rx="4"/>
  <text x="40.2" y="2051" font-family="system-ui,sans-serif" font-size="11" font-weight="600" fill="#0E7490">1.5x</text>
  <text x="-10" y="2082" text-anchor="end" font-family="system-ui,sans-serif" font-size="11.5" fill="#4B5563">ParseEther Large</text>
  <rect x="0" y="2065" width="50.5" height="26" fill="url(#goGrad)" rx="4"/>
  <text x="58.5" y="2082" font-family="system-ui,sans-serif" font-size="11" font-weight="600" fill="#0E7490">1.8x</text>
  <text x="-10" y="2113" text-anchor="end" font-family="system-ui,sans-serif" font-size="11.5" fill="#4B5563">ParseUnits(6)</text>
  <rect x="0" y="2096" width="73.5" height="26" fill="url(#goGrad)" rx="4"/>
  <text x="81.5" y="2113" font-family="system-ui,sans-serif" font-size="11" font-weight="600" fill="#0E7490">2.4x</text>
  <text x="-10" y="2144" text-anchor="end" font-family="system-ui,sans-serif" font-size="11.5" fill="#4B5563">ParseGwei</text>
  <rect x="0" y="2127" width="94.1" height="26" fill="url(#goGrad)" rx="4"/>
  <text x="102.1" y="2144" font-family="system-ui,sans-serif" font-size="11" font-weight="600" fill="#0E7490">3.0x</text>
  <text x="-10" y="2175" text-anchor="end" font-family="system-ui,sans-serif" font-size="11.5" fill="#4B5563">ParseEther</text>
  <rect x="0" y="2158" width="135.0" height="26" fill="url(#goGrad)" rx="4"/>
  <text x="143.0" y="2175" font-family="system-ui,sans-serif" font-size="11" font-weight="600" fill="#0E7490">4.9x</text>
</g>
<g transform="translate(340,2296)">
  <rect width="14" height="14" fill="#00ADD8" rx="3"/>
  <text x="18" y="11" font-family="system-ui,sans-serif" font-size="11" fill="#4B5563">Go faster</text>
  <rect x="100" width="14" height="14" fill="#3178C6" rx="3"/>
  <text x="118" y="11" font-family="system-ui,sans-serif" font-size="11" fill="#4B5563">TS faster</text>
</g>
</svg>